<svg id="svg" version="1.1" xmlns="http://www.w3.org/2000/svg" xmlns:xlink="http://www.w3.org/1999/xlink" viewBox="0, 0, 400,401.038961038961"><g id="svgg"><path id="path0" d="M186.811 0.298 C 180.089 0.396,178.563 0.523,178.291 1.009 C 178.034 1.469,177.076 1.600,173.980 1.600 C 171.791 1.600,170.000 1.761,170.000 1.958 C 170.000 2.154,168.380 2.443,166.400 2.600 C 164.420 2.757,162.800 3.046,162.800 3.242 C 162.800 3.439,161.630 3.600,160.200 3.600 C 158.156 3.600,157.600 3.728,157.600 4.200 C 157.600 4.661,157.089 4.800,155.400 4.800 C 154.190 4.800,153.200 4.980,153.200 5.200 C 153.200 5.420,152.300 5.600,151.200 5.600 C 149.689 5.600,149.200 5.747,149.200 6.200 C 149.200 6.661,148.689 6.800,147.000 6.800 C 145.790 6.800,144.800 6.957,144.800 7.148 C 144.800 7.340,143.900 7.616,142.800 7.762 C 141.700 7.908,140.800 8.201,140.800 8.414 C 140.800 8.626,140.080 8.800,139.200 8.800 C 138.044 8.800,137.600 8.967,137.600 9.400 C 137.600 9.817,137.180 10.000,136.224 10.000 C 135.467 10.000,134.736 10.180,134.600 10.400 C 134.464 10.620,133.733 10.800,132.976 10.800 C 132.020 10.800,131.600 10.983,131.600 11.400 C 131.600 11.800,131.200 12.000,130.400 12.000 C 129.740 12.000,129.200 12.180,129.200 12.400 C 129.200 12.620,128.654 12.800,127.987 12.800 C 127.279 12.800,126.679 13.049,126.545 13.400 C 126.395 13.791,125.772 14.000,124.757 14.000 C 123.640 14.000,123.200 14.169,123.200 14.600 C 123.200 14.973,122.822 15.200,122.200 15.200 C 121.650 15.200,121.200 15.380,121.200 15.600 C 121.200 15.820,120.744 16.000,120.187 16.000 C 119.631 16.000,119.071 16.270,118.945 16.600 C 118.803 16.970,118.195 17.200,117.357 17.200 C 116.611 17.200,116.000 17.380,116.000 17.600 C 116.000 17.820,115.662 18.000,115.249 18.000 C 114.836 18.000,114.274 18.270,114.000 18.600 C 113.726 18.930,113.074 19.200,112.551 19.200 C 111.972 19.200,111.600 19.435,111.600 19.800 C 111.600 20.173,111.222 20.400,110.600 20.400 C 110.050 20.400,109.600 20.580,109.600 20.800 C 109.600 21.020,109.150 21.200,108.600 21.200 C 107.978 21.200,107.600 21.427,107.600 21.800 C 107.600 22.173,107.222 22.400,106.600 22.400 C 106.050 22.400,105.600 22.560,105.600 22.757 C 105.600 22.953,105.150 23.226,104.600 23.364 C 104.050 23.502,103.600 23.792,103.600 24.008 C 103.600 24.223,103.175 24.400,102.656 24.400 C 102.116 24.400,101.391 24.828,100.961 25.400 C 100.548 25.950,99.822 26.400,99.348 26.400 C 98.874 26.400,98.382 26.670,98.255 27.000 C 98.129 27.330,97.704 27.606,97.313 27.613 C 96.438 27.628,95.200 28.525,95.200 29.144 C 95.200 29.395,94.769 29.600,94.243 29.600 C 93.716 29.600,93.182 29.870,93.055 30.200 C 92.929 30.530,92.504 30.806,92.113 30.813 C 91.238 30.828,90.000 31.725,90.000 32.344 C 90.000 32.595,89.550 32.800,89.000 32.800 C 88.450 32.800,88.000 32.980,88.000 33.200 C 88.000 33.420,87.730 33.600,87.400 33.600 C 87.070 33.600,86.800 33.870,86.800 34.200 C 86.800 34.573,86.422 34.800,85.800 34.800 C 85.178 34.800,84.800 35.027,84.800 35.400 C 84.800 35.730,84.596 36.000,84.346 36.000 C 84.096 36.000,83.475 36.450,82.965 37.000 C 82.455 37.550,81.747 38.000,81.391 38.000 C 80.656 38.000,79.600 38.927,79.600 39.571 C 79.600 39.807,79.150 40.000,78.600 40.000 C 77.978 40.000,77.600 40.227,77.600 40.600 C 77.600 40.930,77.330 41.200,77.000 41.200 C 76.670 41.200,76.400 41.380,76.400 41.600 C 76.400 41.820,76.130 42.000,75.800 42.000 C 75.470 42.000,75.200 42.193,75.200 42.429 C 75.200 43.071,74.145 44.000,73.416 44.000 C 73.063 44.000,72.671 44.270,72.545 44.600 C 72.418 44.930,72.064 45.200,71.757 45.200 C 71.451 45.200,71.200 45.470,71.200 45.800 C 71.200 46.130,71.007 46.400,70.771 46.400 C 70.218 46.400,69.200 47.418,69.200 47.971 C 69.200 48.207,69.007 48.400,68.771 48.400 C 68.218 48.400,67.200 49.418,67.200 49.971 C 67.200 50.207,66.775 50.400,66.256 50.400 C 65.716 50.400,64.991 50.828,64.561 51.400 C 64.148 51.950,63.583 52.400,63.305 52.400 C 63.027 52.400,62.800 52.593,62.800 52.829 C 62.800 53.382,61.782 54.400,61.229 54.400 C 60.993 54.400,60.800 54.670,60.800 55.000 C 60.800 55.330,60.560 55.600,60.268 55.600 C 59.975 55.600,59.494 56.050,59.200 56.600 C 58.906 57.150,58.425 57.600,58.132 57.600 C 57.840 57.600,57.600 57.793,57.600 58.029 C 57.600 58.582,56.582 59.600,56.029 59.600 C 55.793 59.600,55.600 59.870,55.600 60.200 C 55.600 60.530,55.360 60.800,55.068 60.800 C 54.775 60.800,54.294 61.250,54.000 61.800 C 53.706 62.350,53.225 62.800,52.932 62.800 C 52.640 62.800,52.400 62.980,52.400 63.200 C 52.400 63.420,51.680 64.320,50.800 65.200 C 49.920 66.080,49.200 67.070,49.200 67.400 C 49.200 67.730,49.020 68.000,48.800 68.000 C 48.580 68.000,48.400 68.270,48.400 68.600 C 48.400 68.930,48.207 69.200,47.971 69.200 C 47.418 69.200,46.400 70.218,46.400 70.771 C 46.400 71.007,46.206 71.200,45.969 71.200 C 45.215 71.200,43.200 73.506,43.200 74.369 C 43.200 74.841,42.941 75.200,42.600 75.200 C 42.270 75.200,42.000 75.380,42.000 75.600 C 42.000 75.820,41.280 76.720,40.400 77.600 C 39.520 78.480,38.800 79.470,38.800 79.800 C 38.800 80.130,38.620 80.400,38.400 80.400 C 38.180 80.400,38.000 80.670,38.000 81.000 C 38.000 81.330,37.730 81.600,37.400 81.600 C 37.027 81.600,36.800 81.978,36.800 82.600 C 36.800 83.150,36.620 83.600,36.400 83.600 C 36.180 83.600,36.000 83.870,36.000 84.200 C 36.000 84.530,35.807 84.800,35.571 84.800 C 34.961 84.800,34.153 85.689,33.826 86.719 C 33.672 87.203,33.378 87.600,33.173 87.600 C 32.968 87.600,32.800 87.851,32.800 88.157 C 32.800 88.464,32.530 88.818,32.200 88.945 C 31.870 89.071,31.600 89.541,31.600 89.987 C 31.600 90.434,31.420 90.800,31.200 90.800 C 30.980 90.800,30.800 91.070,30.800 91.400 C 30.800 91.730,30.530 92.000,30.200 92.000 C 29.834 92.000,29.600 92.373,29.600 92.957 C 29.600 93.484,29.330 94.018,29.000 94.145 C 28.670 94.271,28.400 94.741,28.400 95.187 C 28.400 95.634,28.220 96.000,28.000 96.000 C 27.780 96.000,27.600 96.251,27.600 96.557 C 27.600 96.864,27.330 97.218,27.000 97.345 C 26.670 97.471,26.400 97.941,26.400 98.387 C 26.400 98.834,26.220 99.200,26.000 99.200 C 25.780 99.200,25.600 99.650,25.600 100.200 C 25.600 100.822,25.373 101.200,25.000 101.200 C 24.670 101.200,24.400 101.470,24.400 101.800 C 24.400 102.130,24.240 102.400,24.043 102.400 C 23.847 102.400,23.574 102.850,23.436 103.400 C 23.298 103.950,23.008 104.400,22.792 104.400 C 22.577 104.400,22.400 104.831,22.400 105.357 C 22.400 105.884,22.130 106.418,21.800 106.545 C 21.470 106.671,21.200 107.141,21.200 107.587 C 21.200 108.034,21.020 108.400,20.800 108.400 C 20.580 108.400,20.400 108.940,20.400 109.600 C 20.400 110.400,20.200 110.800,19.800 110.800 C 19.427 110.800,19.200 111.178,19.200 111.800 C 19.200 112.350,19.040 112.800,18.843 112.800 C 18.647 112.800,18.374 113.250,18.236 113.800 C 18.098 114.350,17.808 114.800,17.592 114.800 C 17.377 114.800,17.200 115.231,17.200 115.757 C 17.200 116.284,16.930 116.818,16.600 116.945 C 16.223 117.089,16.000 117.701,16.000 118.587 C 16.000 119.364,15.820 120.000,15.600 120.000 C 15.380 120.000,15.200 120.450,15.200 121.000 C 15.200 121.622,14.973 122.000,14.600 122.000 C 14.227 122.000,14.000 122.378,14.000 123.000 C 14.000 123.550,13.836 124.000,13.635 124.000 C 13.434 124.000,13.149 124.720,13.000 125.600 C 12.851 126.480,12.566 127.200,12.365 127.200 C 12.164 127.200,12.000 127.920,12.000 128.800 C 12.000 129.956,11.833 130.400,11.400 130.400 C 11.027 130.400,10.800 130.778,10.800 131.400 C 10.800 131.950,10.620 132.400,10.400 132.400 C 10.180 132.400,10.000 133.120,10.000 134.000 C 10.000 135.156,9.833 135.600,9.400 135.600 C 8.967 135.600,8.800 136.044,8.800 137.200 C 8.800 138.080,8.620 138.800,8.400 138.800 C 8.180 138.800,7.999 139.115,7.998 139.500 C 7.996 139.885,7.726 140.716,7.398 141.346 C 7.069 141.976,6.800 143.281,6.800 144.246 C 6.800 145.538,6.642 146.000,6.200 146.000 C 5.747 146.000,5.600 146.489,5.600 148.000 C 5.600 149.100,5.420 150.000,5.200 150.000 C 4.980 150.000,4.800 150.990,4.800 152.200 C 4.800 153.889,4.661 154.400,4.200 154.400 C 3.747 154.400,3.600 154.889,3.600 156.400 C 3.600 157.500,3.446 158.400,3.257 158.400 C 3.069 158.400,2.794 159.701,2.646 161.291 C 2.498 162.881,2.203 164.357,1.989 164.571 C 1.775 164.785,1.600 166.274,1.600 167.880 C 1.600 170.058,1.463 170.800,1.063 170.800 C 0.308 170.800,0.003 179.334,0.003 200.400 C 0.003 221.466,0.308 230.000,1.063 230.000 C 1.472 230.000,1.600 230.848,1.600 233.567 C 1.600 235.754,1.766 237.189,2.030 237.277 C 2.266 237.355,2.561 238.540,2.685 239.910 C 2.810 241.279,3.066 242.400,3.256 242.400 C 3.445 242.400,3.600 243.306,3.600 244.413 C 3.600 245.832,3.777 246.493,4.200 246.655 C 4.620 246.817,4.800 247.472,4.800 248.843 C 4.800 249.919,4.980 250.800,5.200 250.800 C 5.420 250.800,5.600 251.700,5.600 252.800 C 5.600 254.311,5.747 254.800,6.200 254.800 C 6.652 254.800,6.800 255.286,6.800 256.776 C 6.800 257.863,6.960 258.851,7.155 258.972 C 7.350 259.093,7.628 259.823,7.773 260.596 C 7.918 261.368,8.208 262.000,8.418 262.000 C 8.628 262.000,8.800 262.720,8.800 263.600 C 8.800 264.756,8.967 265.200,9.400 265.200 C 9.833 265.200,10.000 265.644,10.000 266.800 C 10.000 267.680,10.180 268.400,10.400 268.400 C 10.620 268.400,10.800 268.850,10.800 269.400 C 10.800 270.022,11.027 270.400,11.400 270.400 C 11.833 270.400,12.000 270.844,12.000 272.000 C 12.000 272.880,12.157 273.600,12.349 273.600 C 12.541 273.600,12.813 274.320,12.954 275.200 C 13.094 276.080,13.387 276.800,13.605 276.800 C 13.822 276.800,14.000 277.250,14.000 277.800 C 14.000 278.422,14.227 278.800,14.600 278.800 C 14.973 278.800,15.200 279.178,15.200 279.800 C 15.200 280.350,15.380 280.800,15.600 280.800 C 15.820 280.800,16.000 281.436,16.000 282.213 C 16.000 283.099,16.223 283.711,16.600 283.855 C 16.930 283.982,17.200 284.516,17.200 285.043 C 17.200 285.569,17.377 286.000,17.592 286.000 C 17.808 286.000,18.098 286.450,18.236 287.000 C 18.374 287.550,18.647 288.000,18.843 288.000 C 19.040 288.000,19.200 288.456,19.200 289.013 C 19.200 289.569,19.470 290.129,19.800 290.255 C 20.130 290.382,20.400 290.916,20.400 291.443 C 20.400 291.969,20.580 292.400,20.800 292.400 C 21.020 292.400,21.200 292.766,21.200 293.213 C 21.200 293.659,21.470 294.129,21.800 294.255 C 22.130 294.382,22.400 294.916,22.400 295.443 C 22.400 295.969,22.577 296.400,22.792 296.400 C 23.008 296.400,23.298 296.850,23.436 297.400 C 23.574 297.950,23.847 298.400,24.043 298.400 C 24.240 298.400,24.400 298.670,24.400 299.000 C 24.400 299.330,24.670 299.600,25.000 299.600 C 25.373 299.600,25.600 299.978,25.600 300.600 C 25.600 301.150,25.780 301.600,26.000 301.600 C 26.220 301.600,26.400 302.050,26.400 302.600 C 26.400 303.222,26.627 303.600,27.000 303.600 C 27.330 303.600,27.600 303.870,27.600 304.200 C 27.600 304.530,27.780 304.800,28.000 304.800 C 28.220 304.800,28.400 305.166,28.400 305.613 C 28.400 306.059,28.670 306.529,29.000 306.655 C 29.330 306.782,29.600 307.316,29.600 307.843 C 29.600 308.427,29.834 308.800,30.200 308.800 C 30.530 308.800,30.800 309.070,30.800 309.400 C 30.800 309.730,30.980 310.000,31.200 310.000 C 31.420 310.000,31.600 310.366,31.600 310.813 C 31.600 311.259,31.870 311.729,32.200 311.855 C 32.530 311.982,32.800 312.336,32.800 312.643 C 32.800 312.949,32.968 313.200,33.173 313.200 C 33.378 313.200,33.672 313.597,33.826 314.081 C 34.153 315.111,34.961 316.000,35.571 316.000 C 35.807 316.000,36.000 316.270,36.000 316.600 C 36.000 316.930,36.180 317.200,36.400 317.200 C 36.620 317.200,36.800 317.650,36.800 318.200 C 36.800 318.822,37.027 319.200,37.400 319.200 C 37.730 319.200,38.000 319.470,38.000 319.800 C 38.000 320.130,38.180 320.400,38.400 320.400 C 38.620 320.400,38.800 320.670,38.800 321.000 C 38.800 321.330,39.520 322.320,40.400 323.200 C 41.280 324.080,42.000 324.980,42.000 325.200 C 42.000 325.420,42.270 325.600,42.600 325.600 C 42.941 325.600,43.200 325.959,43.200 326.431 C 43.200 327.294,45.215 329.600,45.969 329.600 C 46.206 329.600,46.400 329.793,46.400 330.029 C 46.400 330.582,47.418 331.600,47.971 331.600 C 48.207 331.600,48.400 331.969,48.400 332.419 C 48.400 332.870,48.850 333.655,49.400 334.165 C 49.950 334.675,50.400 335.296,50.400 335.546 C 50.400 335.796,50.593 336.000,50.829 336.000 C 51.382 336.000,52.400 337.018,52.400 337.571 C 52.400 337.807,52.640 338.000,52.932 338.000 C 53.225 338.000,53.706 338.450,54.000 339.000 C 54.294 339.550,54.775 340.000,55.068 340.000 C 55.360 340.000,55.600 340.270,55.600 340.600 C 55.600 340.930,55.793 341.200,56.029 341.200 C 56.582 341.200,57.600 342.218,57.600 342.771 C 57.600 343.007,57.870 343.200,58.200 343.200 C 58.530 343.200,58.800 343.393,58.800 343.629 C 58.800 344.182,59.818 345.200,60.371 345.200 C 60.607 345.200,60.800 345.470,60.800 345.800 C 60.800 346.130,60.993 346.400,61.229 346.400 C 61.782 346.400,62.800 347.418,62.800 347.971 C 62.800 348.207,62.978 348.400,63.195 348.400 C 63.412 348.400,64.267 349.120,65.095 349.999 C 65.923 350.879,66.915 351.599,67.300 351.599 C 67.685 351.600,68.000 351.780,68.000 352.000 C 68.000 352.220,68.270 352.400,68.600 352.400 C 68.930 352.400,69.200 352.593,69.200 352.829 C 69.200 353.382,70.218 354.400,70.771 354.400 C 71.007 354.400,71.200 354.670,71.200 355.000 C 71.200 355.330,71.451 355.600,71.757 355.600 C 72.064 355.600,72.418 355.870,72.545 356.200 C 72.671 356.530,73.063 356.800,73.416 356.800 C 74.145 356.800,75.200 357.729,75.200 358.371 C 75.200 358.607,75.470 358.800,75.800 358.800 C 76.130 358.800,76.400 358.980,76.400 359.200 C 76.400 359.420,76.670 359.600,77.000 359.600 C 77.330 359.600,77.600 359.870,77.600 360.200 C 77.600 360.573,77.978 360.800,78.600 360.800 C 79.150 360.800,79.600 360.993,79.600 361.229 C 79.600 361.762,80.610 362.800,81.129 362.800 C 81.341 362.800,81.618 363.070,81.745 363.400 C 81.871 363.730,82.341 364.000,82.787 364.000 C 83.234 364.000,83.600 364.180,83.600 364.400 C 83.600 364.620,83.870 364.800,84.200 364.800 C 84.530 364.800,84.800 365.070,84.800 365.400 C 84.800 365.773,85.178 366.000,85.800 366.000 C 86.422 366.000,86.800 366.227,86.800 366.600 C 86.800 366.930,87.070 367.200,87.400 367.200 C 87.730 367.200,88.000 367.380,88.000 367.600 C 88.000 367.820,88.450 368.000,89.000 368.000 C 89.550 368.000,90.000 368.205,90.000 368.456 C 90.000 369.075,91.238 369.972,92.113 369.987 C 92.504 369.994,92.929 370.270,93.055 370.600 C 93.182 370.930,93.716 371.200,94.243 371.200 C 94.769 371.200,95.200 371.393,95.200 371.629 C 95.200 372.338,96.288 373.200,97.184 373.200 C 97.647 373.200,98.129 373.470,98.255 373.800 C 98.382 374.130,98.874 374.400,99.348 374.400 C 99.822 374.400,100.548 374.850,100.961 375.400 C 101.374 375.950,102.025 376.400,102.407 376.400 C 102.789 376.400,103.326 376.670,103.600 377.000 C 103.874 377.330,104.436 377.600,104.849 377.600 C 105.262 377.600,105.600 377.780,105.600 378.000 C 105.600 378.220,106.050 378.400,106.600 378.400 C 107.222 378.400,107.600 378.627,107.600 379.000 C 107.600 379.373,107.978 379.600,108.600 379.600 C 109.150 379.600,109.600 379.780,109.600 380.000 C 109.600 380.220,110.050 380.400,110.600 380.400 C 111.222 380.400,111.600 380.627,111.600 381.000 C 111.600 381.365,111.972 381.600,112.551 381.600 C 113.074 381.600,113.726 381.870,114.000 382.200 C 114.274 382.530,114.836 382.800,115.249 382.800 C 115.662 382.800,116.000 382.980,116.000 383.200 C 116.000 383.420,116.611 383.600,117.357 383.600 C 118.195 383.600,118.803 383.830,118.945 384.200 C 119.071 384.530,119.631 384.800,120.187 384.800 C 120.744 384.800,121.200 384.980,121.200 385.200 C 121.200 385.420,121.650 385.600,122.200 385.600 C 122.822 385.600,123.200 385.827,123.200 386.200 C 123.200 386.633,123.644 386.800,124.800 386.800 C 125.956 386.800,126.400 386.967,126.400 387.400 C 126.400 387.773,126.778 388.000,127.400 388.000 C 127.950 388.000,128.400 388.180,128.400 388.400 C 128.400 388.620,129.120 388.800,130.000 388.800 C 131.156 388.800,131.600 388.967,131.600 389.400 C 131.600 389.817,132.020 390.000,132.976 390.000 C 133.733 390.000,134.464 390.180,134.600 390.400 C 134.736 390.620,135.467 390.800,136.224 390.800 C 137.180 390.800,137.600 390.983,137.600 391.400 C 137.600 391.831,138.041 392.000,139.167 392.000 C 140.028 392.000,140.799 392.198,140.880 392.439 C 140.960 392.681,141.875 392.974,142.913 393.091 C 143.951 393.208,144.800 393.461,144.800 393.652 C 144.800 393.843,145.501 394.000,146.357 394.000 C 147.372 394.000,147.995 394.209,148.145 394.600 C 148.314 395.042,149.012 395.200,150.787 395.200 C 152.129 395.200,153.200 395.378,153.200 395.600 C 153.200 395.820,154.190 396.000,155.400 396.000 C 157.089 396.000,157.600 396.139,157.600 396.600 C 157.600 397.071,158.151 397.200,160.157 397.200 C 162.061 397.200,162.773 397.353,162.945 397.800 C 163.119 398.255,163.856 398.400,165.987 398.400 C 167.596 398.400,168.800 398.571,168.800 398.800 C 168.800 399.041,170.467 399.200,173.000 399.200 C 176.244 399.200,177.200 399.322,177.200 399.736 C 177.200 400.950,221.414 400.949,221.880 399.735 C 222.033 399.338,223.108 399.200,226.043 399.200 C 228.414 399.200,230.000 399.040,230.000 398.800 C 230.000 398.569,231.271 398.400,233.013 398.400 C 235.321 398.400,236.079 398.260,236.255 397.800 C 236.427 397.353,237.139 397.200,239.043 397.200 C 241.049 397.200,241.600 397.071,241.600 396.600 C 241.600 396.128,242.156 396.000,244.200 396.000 C 245.667 396.000,246.800 395.826,246.800 395.600 C 246.800 395.380,247.616 395.200,248.613 395.200 C 249.855 395.200,250.498 395.011,250.655 394.600 C 250.805 394.209,251.428 394.000,252.443 394.000 C 253.299 394.000,254.000 393.820,254.000 393.600 C 254.000 393.380,254.816 393.200,255.813 393.200 C 257.055 393.200,257.698 393.011,257.855 392.600 C 258.005 392.209,258.628 392.000,259.643 392.000 C 260.760 392.000,261.200 391.831,261.200 391.400 C 261.200 390.967,261.644 390.800,262.800 390.800 C 263.680 390.800,264.400 390.620,264.400 390.400 C 264.400 390.180,265.036 390.000,265.813 390.000 C 266.699 390.000,267.311 389.777,267.455 389.400 C 267.597 389.030,268.205 388.800,269.043 388.800 C 269.789 388.800,270.400 388.620,270.400 388.400 C 270.400 388.180,270.856 388.000,271.413 388.000 C 271.969 388.000,272.529 387.730,272.655 387.400 C 272.798 387.028,273.407 386.800,274.255 386.800 C 275.104 386.800,275.713 386.572,275.855 386.200 C 275.982 385.870,276.516 385.600,277.043 385.600 C 277.569 385.600,278.000 385.420,278.000 385.200 C 278.000 384.980,278.611 384.800,279.357 384.800 C 280.195 384.800,280.803 384.570,280.945 384.200 C 281.071 383.870,281.631 383.600,282.187 383.600 C 282.744 383.600,283.200 383.420,283.200 383.200 C 283.200 382.980,283.566 382.800,284.013 382.800 C 284.459 382.800,284.929 382.530,285.055 382.200 C 285.182 381.870,285.716 381.600,286.243 381.600 C 286.827 381.600,287.200 381.366,287.200 381.000 C 287.200 380.627,287.578 380.400,288.200 380.400 C 288.750 380.400,289.200 380.220,289.200 380.000 C 289.200 379.780,289.656 379.600,290.213 379.600 C 290.769 379.600,291.329 379.330,291.455 379.000 C 291.582 378.670,292.116 378.400,292.643 378.400 C 293.169 378.400,293.600 378.220,293.600 378.000 C 293.600 377.780,293.966 377.600,294.413 377.600 C 294.859 377.600,295.329 377.330,295.455 377.000 C 295.582 376.670,296.116 376.400,296.643 376.400 C 297.227 376.400,297.600 376.166,297.600 375.800 C 297.600 375.470,297.870 375.200,298.200 375.200 C 298.530 375.200,298.800 375.020,298.800 374.800 C 298.800 374.580,299.250 374.400,299.800 374.400 C 300.422 374.400,300.800 374.173,300.800 373.800 C 300.800 373.427,301.178 373.200,301.800 373.200 C 302.350 373.200,302.800 373.040,302.800 372.843 C 302.800 372.647,303.250 372.374,303.800 372.236 C 304.350 372.098,304.800 371.808,304.800 371.592 C 304.800 371.377,305.070 371.200,305.400 371.200 C 305.730 371.200,306.000 370.930,306.000 370.600 C 306.000 370.227,306.378 370.000,307.000 370.000 C 307.550 370.000,308.000 369.820,308.000 369.600 C 308.000 369.380,308.270 369.200,308.600 369.200 C 308.930 369.200,309.200 368.930,309.200 368.600 C 309.200 368.254,309.562 368.000,310.054 368.000 C 310.524 368.000,311.325 367.550,311.835 367.000 C 312.345 366.450,313.130 366.000,313.581 366.000 C 314.031 366.000,314.400 365.807,314.400 365.571 C 314.400 364.866,315.486 364.000,316.371 364.000 C 316.841 364.000,317.200 363.740,317.200 363.400 C 317.200 363.070,317.470 362.800,317.800 362.800 C 318.130 362.800,318.400 362.620,318.400 362.400 C 318.400 362.180,318.670 362.000,319.000 362.000 C 319.330 362.000,319.600 361.730,319.600 361.400 C 319.600 361.070,319.935 360.800,320.344 360.800 C 320.753 360.800,321.426 360.350,321.839 359.800 C 322.252 359.250,322.817 358.800,323.095 358.800 C 323.373 358.800,323.600 358.530,323.600 358.200 C 323.600 357.859,323.959 357.600,324.431 357.600 C 325.294 357.600,327.600 355.585,327.600 354.831 C 327.600 354.594,327.870 354.400,328.200 354.400 C 328.530 354.400,328.800 354.220,328.800 354.000 C 328.800 353.780,329.070 353.600,329.400 353.600 C 329.730 353.600,330.000 353.330,330.000 353.000 C 330.000 352.638,330.370 352.400,330.932 352.400 C 331.518 352.400,332.064 352.028,332.400 351.400 C 332.694 350.850,333.099 350.400,333.298 350.400 C 333.808 350.400,336.000 348.153,336.000 347.631 C 336.000 347.394,336.193 347.200,336.429 347.200 C 336.982 347.200,338.000 346.182,338.000 345.629 C 338.000 345.393,338.194 345.200,338.431 345.200 C 338.991 345.200,341.200 342.991,341.200 342.431 C 341.200 342.194,341.393 342.000,341.629 342.000 C 342.182 342.000,343.200 340.982,343.200 340.429 C 343.200 340.193,343.394 340.000,343.631 340.000 C 344.191 340.000,346.400 337.791,346.400 337.231 C 346.400 336.994,346.593 336.800,346.829 336.800 C 347.382 336.800,348.400 335.782,348.400 335.229 C 348.400 334.993,348.670 334.800,349.000 334.800 C 349.330 334.800,349.600 334.560,349.600 334.268 C 349.600 333.975,350.050 333.494,350.600 333.200 C 351.228 332.864,351.600 332.318,351.600 331.732 C 351.600 331.170,351.838 330.800,352.200 330.800 C 352.530 330.800,352.800 330.614,352.800 330.388 C 352.800 330.161,353.700 329.103,354.800 328.038 C 355.964 326.909,356.800 325.745,356.800 325.250 C 356.800 324.782,356.993 324.400,357.229 324.400 C 357.782 324.400,358.800 323.382,358.800 322.829 C 358.800 322.593,359.070 322.400,359.400 322.400 C 359.773 322.400,360.000 322.022,360.000 321.400 C 360.000 320.778,360.227 320.400,360.600 320.400 C 360.930 320.400,361.200 320.196,361.200 319.946 C 361.200 319.696,361.650 319.075,362.200 318.565 C 362.750 318.055,363.200 317.347,363.200 316.991 C 363.200 316.256,364.127 315.200,364.771 315.200 C 365.007 315.200,365.200 314.831,365.200 314.381 C 365.200 313.930,365.650 313.145,366.200 312.635 C 366.750 312.125,367.200 311.324,367.200 310.854 C 367.200 310.362,367.454 310.000,367.800 310.000 C 368.130 310.000,368.400 309.730,368.400 309.400 C 368.400 309.070,368.580 308.800,368.800 308.800 C 369.020 308.800,369.200 308.350,369.200 307.800 C 369.200 307.178,369.427 306.800,369.800 306.800 C 370.130 306.800,370.400 306.530,370.400 306.200 C 370.400 305.870,370.577 305.600,370.792 305.600 C 371.008 305.600,371.298 305.150,371.436 304.600 C 371.574 304.050,371.847 303.600,372.043 303.600 C 372.240 303.600,372.400 303.150,372.400 302.600 C 372.400 301.978,372.627 301.600,373.000 301.600 C 373.330 301.600,373.600 301.330,373.600 301.000 C 373.600 300.670,373.780 300.400,374.000 300.400 C 374.220 300.400,374.400 299.950,374.400 299.400 C 374.400 298.778,374.627 298.400,375.000 298.400 C 375.366 298.400,375.600 298.027,375.600 297.443 C 375.600 296.916,375.870 296.382,376.200 296.255 C 376.530 296.129,376.800 295.659,376.800 295.213 C 376.800 294.766,376.980 294.400,377.200 294.400 C 377.420 294.400,377.600 293.950,377.600 293.400 C 377.600 292.778,377.827 292.400,378.200 292.400 C 378.573 292.400,378.800 292.022,378.800 291.400 C 378.800 290.850,378.980 290.400,379.200 290.400 C 379.420 290.400,379.600 289.860,379.600 289.200 C 379.600 288.400,379.800 288.000,380.200 288.000 C 380.566 288.000,380.800 287.627,380.800 287.043 C 380.800 286.516,381.070 285.982,381.400 285.855 C 381.730 285.729,382.000 285.259,382.000 284.813 C 382.000 284.366,382.180 284.000,382.400 284.000 C 382.620 284.000,382.800 283.569,382.800 283.043 C 382.800 282.516,383.070 281.982,383.400 281.855 C 383.777 281.711,384.000 281.099,384.000 280.213 C 384.000 279.436,384.180 278.800,384.400 278.800 C 384.620 278.800,384.800 278.350,384.800 277.800 C 384.800 277.178,385.027 276.800,385.400 276.800 C 385.833 276.800,386.000 276.356,386.000 275.200 C 386.000 274.044,386.167 273.600,386.600 273.600 C 386.973 273.600,387.200 273.222,387.200 272.600 C 387.200 272.050,387.380 271.600,387.600 271.600 C 387.820 271.600,388.000 270.880,388.000 270.000 C 388.000 268.844,388.167 268.400,388.600 268.400 C 389.033 268.400,389.200 267.956,389.200 266.800 C 389.200 265.920,389.380 265.200,389.600 265.200 C 389.820 265.200,390.000 264.480,390.000 263.600 C 390.000 262.444,390.167 262.000,390.600 262.000 C 391.015 262.000,391.200 261.583,391.200 260.643 C 391.200 259.805,391.430 259.197,391.800 259.055 C 392.223 258.893,392.400 258.232,392.400 256.813 C 392.400 255.706,392.580 254.800,392.800 254.800 C 393.020 254.800,393.200 254.099,393.200 253.243 C 393.200 252.228,393.409 251.605,393.800 251.455 C 394.211 251.298,394.400 250.655,394.400 249.413 C 394.400 248.416,394.580 247.600,394.800 247.600 C 395.026 247.600,395.200 246.467,395.200 245.000 C 395.200 242.956,395.328 242.400,395.800 242.400 C 396.271 242.400,396.400 241.849,396.400 239.843 C 396.400 237.939,396.553 237.227,397.000 237.055 C 397.454 236.881,397.600 236.146,397.600 234.036 C 397.600 232.502,397.780 231.136,398.000 231.000 C 398.222 230.863,398.400 229.044,398.400 226.920 C 398.400 223.797,398.524 222.998,399.070 222.598 C 400.100 221.845,400.100 178.955,399.070 178.202 C 398.524 177.802,398.400 177.003,398.400 173.880 C 398.400 171.756,398.222 169.937,398.000 169.800 C 397.780 169.664,397.600 168.298,397.600 166.764 C 397.600 164.654,397.454 163.919,397.000 163.745 C 396.553 163.573,396.400 162.861,396.400 160.957 C 396.400 158.951,396.271 158.400,395.800 158.400 C 395.328 158.400,395.200 157.844,395.200 155.800 C 395.200 154.333,395.026 153.200,394.800 153.200 C 394.580 153.200,394.400 152.384,394.400 151.387 C 394.400 150.145,394.211 149.502,393.800 149.345 C 393.409 149.195,393.200 148.572,393.200 147.557 C 393.200 146.701,393.020 146.000,392.800 146.000 C 392.580 146.000,392.400 145.203,392.400 144.229 C 392.400 143.187,392.153 142.210,391.800 141.857 C 391.470 141.527,391.200 140.704,391.200 140.029 C 391.200 139.203,391.003 138.800,390.600 138.800 C 390.167 138.800,390.000 138.356,390.000 137.200 C 390.000 136.320,389.820 135.600,389.600 135.600 C 389.380 135.600,389.200 134.964,389.200 134.187 C 389.200 133.301,388.977 132.689,388.600 132.545 C 388.233 132.404,388.000 131.797,388.000 130.981 C 388.000 130.247,387.820 129.536,387.600 129.400 C 387.380 129.264,387.200 128.798,387.200 128.364 C 387.200 127.930,386.930 127.471,386.600 127.345 C 386.209 127.195,386.000 126.572,386.000 125.557 C 386.000 124.440,385.831 124.000,385.400 124.000 C 385.027 124.000,384.800 123.622,384.800 123.000 C 384.800 122.450,384.620 122.000,384.400 122.000 C 384.180 122.000,384.000 121.364,384.000 120.587 C 384.000 119.701,383.777 119.089,383.400 118.945 C 383.070 118.818,382.800 118.284,382.800 117.757 C 382.800 117.231,382.620 116.800,382.400 116.800 C 382.180 116.800,382.000 116.434,382.000 115.987 C 382.000 115.541,381.730 115.071,381.400 114.945 C 381.070 114.818,380.800 114.284,380.800 113.757 C 380.800 113.173,380.566 112.800,380.200 112.800 C 379.831 112.800,379.600 112.425,379.600 111.824 C 379.600 111.287,379.420 110.736,379.200 110.600 C 378.980 110.464,378.800 109.998,378.800 109.564 C 378.800 109.130,378.530 108.671,378.200 108.545 C 377.870 108.418,377.600 107.884,377.600 107.357 C 377.600 106.831,377.420 106.400,377.200 106.400 C 376.980 106.400,376.800 106.034,376.800 105.587 C 376.800 105.141,376.530 104.671,376.200 104.545 C 375.870 104.418,375.600 103.884,375.600 103.357 C 375.600 102.773,375.366 102.400,375.000 102.400 C 374.670 102.400,374.400 102.130,374.400 101.800 C 374.400 101.470,374.220 101.200,374.000 101.200 C 373.780 101.200,373.600 100.750,373.600 100.200 C 373.600 99.578,373.373 99.200,373.000 99.200 C 372.627 99.200,372.400 98.822,372.400 98.200 C 372.400 97.650,372.240 97.200,372.043 97.200 C 371.847 97.200,371.574 96.750,371.436 96.200 C 371.298 95.650,371.008 95.200,370.792 95.200 C 370.577 95.200,370.400 94.930,370.400 94.600 C 370.400 94.270,370.130 94.000,369.800 94.000 C 369.427 94.000,369.200 93.622,369.200 93.000 C 369.200 92.450,369.020 92.000,368.800 92.000 C 368.580 92.000,368.400 91.730,368.400 91.400 C 368.400 91.070,368.130 90.800,367.800 90.800 C 367.454 90.800,367.200 90.438,367.200 89.946 C 367.200 89.476,366.750 88.675,366.200 88.165 C 365.650 87.655,365.200 86.870,365.200 86.419 C 365.200 85.969,365.007 85.600,364.771 85.600 C 364.134 85.600,363.200 84.547,363.200 83.829 C 363.200 83.483,362.480 82.480,361.600 81.600 C 360.720 80.720,360.000 79.640,360.000 79.200 C 360.000 78.756,359.733 78.400,359.400 78.400 C 359.070 78.400,358.800 78.207,358.800 77.971 C 358.800 77.418,357.782 76.400,357.229 76.400 C 356.993 76.400,356.800 76.130,356.800 75.800 C 356.800 75.470,356.620 75.200,356.400 75.200 C 356.180 75.200,356.000 74.930,356.000 74.600 C 356.000 74.270,355.280 73.280,354.400 72.400 C 353.520 71.520,352.800 70.620,352.800 70.400 C 352.800 70.180,352.607 70.000,352.371 70.000 C 351.729 70.000,350.800 68.945,350.800 68.216 C 350.800 67.863,350.530 67.471,350.200 67.345 C 349.870 67.218,349.600 66.864,349.600 66.557 C 349.600 66.251,349.330 66.000,349.000 66.000 C 348.670 66.000,348.400 65.807,348.400 65.571 C 348.400 65.018,347.382 64.000,346.829 64.000 C 346.593 64.000,346.400 63.806,346.400 63.569 C 346.400 63.009,344.191 60.800,343.631 60.800 C 343.394 60.800,343.200 60.607,343.200 60.371 C 343.200 59.818,342.182 58.800,341.629 58.800 C 341.393 58.800,341.200 58.614,341.200 58.387 C 341.200 57.869,338.909 55.600,338.386 55.600 C 338.174 55.600,338.000 55.407,338.000 55.171 C 338.000 54.618,336.982 53.600,336.429 53.600 C 336.193 53.600,336.000 53.407,336.000 53.171 C 336.000 52.618,334.982 51.600,334.429 51.600 C 334.193 51.600,334.000 51.330,334.000 51.000 C 334.000 50.670,333.749 50.400,333.443 50.400 C 333.136 50.400,332.782 50.130,332.655 49.800 C 332.529 49.470,332.137 49.200,331.784 49.200 C 331.055 49.200,330.000 48.271,330.000 47.629 C 330.000 47.393,329.730 47.200,329.400 47.200 C 329.070 47.200,328.800 47.020,328.800 46.800 C 328.800 46.580,328.530 46.400,328.200 46.400 C 327.870 46.400,327.600 46.222,327.600 46.005 C 327.600 45.302,326.243 44.000,325.511 44.000 C 325.120 44.000,324.800 43.820,324.800 43.600 C 324.800 43.380,324.530 43.200,324.200 43.200 C 323.870 43.200,323.600 42.930,323.600 42.600 C 323.600 42.270,323.373 42.000,323.095 42.000 C 322.817 42.000,322.252 41.550,321.839 41.000 C 321.426 40.450,320.835 40.000,320.525 40.000 C 320.215 40.000,319.545 39.550,319.035 39.000 C 318.525 38.450,317.904 38.000,317.654 38.000 C 317.404 38.000,317.200 37.730,317.200 37.400 C 317.200 37.043,316.833 36.800,316.295 36.800 C 315.796 36.800,315.053 36.351,314.639 35.800 C 314.226 35.250,313.635 34.800,313.325 34.800 C 313.015 34.800,312.345 34.350,311.835 33.800 C 311.325 33.250,310.524 32.800,310.054 32.800 C 309.562 32.800,309.200 32.546,309.200 32.200 C 309.200 31.870,308.930 31.600,308.600 31.600 C 308.270 31.600,308.000 31.420,308.000 31.200 C 308.000 30.980,307.550 30.800,307.000 30.800 C 306.378 30.800,306.000 30.573,306.000 30.200 C 306.000 29.862,305.642 29.600,305.181 29.600 C 304.730 29.600,303.945 29.150,303.435 28.600 C 302.925 28.050,302.124 27.600,301.654 27.600 C 301.162 27.600,300.800 27.346,300.800 27.000 C 300.800 26.627,300.422 26.400,299.800 26.400 C 299.250 26.400,298.800 26.220,298.800 26.000 C 298.800 25.780,298.530 25.600,298.200 25.600 C 297.870 25.600,297.600 25.330,297.600 25.000 C 297.600 24.634,297.227 24.400,296.643 24.400 C 296.116 24.400,295.582 24.130,295.455 23.800 C 295.329 23.470,294.859 23.200,294.413 23.200 C 293.966 23.200,293.600 23.020,293.600 22.800 C 293.600 22.580,293.169 22.400,292.643 22.400 C 292.116 22.400,291.582 22.130,291.455 21.800 C 291.329 21.470,290.769 21.200,290.213 21.200 C 289.656 21.200,289.200 21.020,289.200 20.800 C 289.200 20.580,288.750 20.400,288.200 20.400 C 287.578 20.400,287.200 20.173,287.200 19.800 C 287.200 19.427,286.822 19.200,286.200 19.200 C 285.650 19.200,285.200 19.055,285.200 18.877 C 285.200 18.387,282.274 17.200,281.066 17.200 C 280.385 17.200,280.000 16.983,280.000 16.600 C 280.000 16.227,279.622 16.000,279.000 16.000 C 278.450 16.000,278.000 15.820,278.000 15.600 C 278.000 15.380,277.544 15.200,276.987 15.200 C 276.431 15.200,275.871 14.930,275.745 14.600 C 275.605 14.235,274.999 14.000,274.200 14.000 C 273.401 14.000,272.795 13.765,272.655 13.400 C 272.529 13.070,271.969 12.800,271.413 12.800 C 270.856 12.800,270.400 12.620,270.400 12.400 C 270.400 12.180,269.789 12.000,269.043 12.000 C 268.205 12.000,267.597 11.770,267.455 11.400 C 267.311 11.023,266.699 10.800,265.813 10.800 C 265.036 10.800,264.400 10.620,264.400 10.400 C 264.400 10.180,263.680 10.000,262.800 10.000 C 261.644 10.000,261.200 9.833,261.200 9.400 C 261.200 8.969,260.759 8.800,259.633 8.800 C 258.772 8.800,258.001 8.602,257.920 8.361 C 257.840 8.119,256.925 7.826,255.887 7.709 C 254.849 7.592,254.000 7.339,254.000 7.148 C 254.000 6.957,253.119 6.800,252.043 6.800 C 250.672 6.800,250.017 6.620,249.855 6.200 C 249.693 5.777,249.032 5.600,247.613 5.600 C 246.506 5.600,245.600 5.420,245.600 5.200 C 245.600 4.980,244.700 4.800,243.600 4.800 C 242.089 4.800,241.600 4.653,241.600 4.200 C 241.600 3.728,241.044 3.600,239.000 3.600 C 237.570 3.600,236.400 3.443,236.400 3.252 C 236.400 3.060,234.960 2.778,233.200 2.624 C 231.440 2.471,230.000 2.177,230.000 1.973 C 230.000 1.767,228.182 1.600,225.944 1.600 C 222.974 1.600,221.769 1.452,221.444 1.047 C 220.959 0.444,203.171 0.059,186.811 0.298 M304.000 83.000 C 304.000 83.330,304.180 83.600,304.400 83.600 C 304.620 83.600,304.800 83.966,304.800 84.413 C 304.800 84.859,305.070 85.329,305.400 85.455 C 305.730 85.582,306.000 85.936,306.000 86.243 C 306.000 86.549,306.193 86.800,306.429 86.800 C 307.134 86.800,308.000 87.886,308.000 88.771 C 308.000 89.241,308.260 89.600,308.600 89.600 C 308.930 89.600,309.200 89.870,309.200 90.200 C 309.200 90.530,309.380 90.800,309.600 90.800 C 309.820 90.800,310.000 91.070,310.000 91.400 C 310.000 91.730,310.270 92.000,310.600 92.000 C 310.973 92.000,311.200 92.378,311.200 93.000 C 311.200 93.622,311.427 94.000,311.800 94.000 C 312.130 94.000,312.400 94.193,312.400 94.429 C 312.400 94.982,313.418 96.000,313.971 96.000 C 314.207 96.000,314.400 96.450,314.400 97.000 C 314.400 97.550,314.580 98.000,314.800 98.000 C 315.020 98.000,315.200 98.270,315.200 98.600 C 315.200 98.930,315.470 99.200,315.800 99.200 C 316.130 99.200,316.400 99.380,316.400 99.600 C 316.400 99.820,316.670 100.000,317.000 100.000 C 317.330 100.000,317.600 100.270,317.600 100.600 C 317.600 100.930,317.780 101.200,318.000 101.200 C 318.220 101.200,318.400 101.650,318.400 102.200 C 318.400 102.822,318.627 103.200,319.000 103.200 C 319.330 103.200,319.600 103.393,319.600 103.629 C 319.600 104.182,320.618 105.200,321.171 105.200 C 321.407 105.200,321.600 105.625,321.600 106.144 C 321.600 106.684,322.028 107.409,322.600 107.839 C 323.150 108.252,323.600 108.817,323.600 109.095 C 323.600 109.373,323.870 109.600,324.200 109.600 C 324.541 109.600,324.800 109.959,324.800 110.431 C 324.800 110.889,325.520 111.976,326.400 112.847 C 327.280 113.718,328.000 114.694,328.000 115.015 C 328.000 115.337,328.180 115.600,328.400 115.600 C 328.620 115.600,328.800 115.870,328.800 116.200 C 328.800 116.530,329.070 116.800,329.400 116.800 C 329.730 116.800,330.000 116.993,330.000 117.229 C 330.000 117.782,331.018 118.800,331.571 118.800 C 331.807 118.800,332.000 119.169,332.000 119.619 C 332.000 120.070,332.450 120.855,333.000 121.365 C 333.550 121.875,334.000 122.496,334.000 122.746 C 334.000 122.996,334.270 123.200,334.600 123.200 C 334.940 123.200,335.200 123.559,335.200 124.029 C 335.200 124.914,336.066 126.000,336.771 126.000 C 337.007 126.000,337.200 126.270,337.200 126.600 C 337.200 126.930,337.377 127.200,337.592 127.200 C 337.808 127.200,338.098 127.650,338.236 128.200 C 338.374 128.750,338.647 129.200,338.843 129.200 C 339.040 129.200,339.200 129.470,339.200 129.800 C 339.200 130.130,339.393 130.400,339.629 130.400 C 340.182 130.400,341.200 131.418,341.200 131.971 C 341.200 132.207,341.470 132.400,341.800 132.400 C 342.141 132.400,342.400 132.759,342.400 133.231 C 342.400 134.094,344.415 136.400,345.169 136.400 C 345.406 136.400,345.600 136.850,345.600 137.400 C 345.600 137.950,345.780 138.400,346.000 138.400 C 346.220 138.400,346.400 138.670,346.400 139.000 C 346.400 139.330,346.670 139.600,347.000 139.600 C 347.330 139.600,347.600 139.870,347.600 140.200 C 347.600 140.530,347.768 140.800,347.973 140.800 C 348.178 140.800,348.473 141.205,348.629 141.700 C 348.784 142.195,349.516 143.173,350.256 143.873 C 350.995 144.573,351.600 145.518,351.600 145.973 C 351.600 146.441,351.860 146.800,352.200 146.800 C 352.530 146.800,352.800 146.994,352.800 147.231 C 352.800 147.791,355.009 150.000,355.569 150.000 C 355.806 150.000,356.000 150.450,356.000 151.000 C 356.000 151.550,356.180 152.000,356.400 152.000 C 356.620 152.000,356.800 152.270,356.800 152.600 C 356.800 152.930,356.993 153.200,357.229 153.200 C 357.825 153.200,358.470 153.958,359.363 155.706 C 359.783 156.528,360.368 157.200,360.663 157.200 C 360.958 157.200,361.200 157.455,361.200 157.767 C 361.200 158.078,361.405 158.402,361.655 158.485 C 362.247 158.682,362.247 162.118,361.655 162.315 C 361.405 162.398,361.200 162.722,361.200 163.033 C 361.200 163.345,361.006 163.600,360.769 163.600 C 360.209 163.600,358.000 165.809,358.000 166.369 C 358.000 166.606,357.730 166.800,357.400 166.800 C 357.060 166.800,356.800 167.159,356.800 167.629 C 356.800 168.514,355.934 169.600,355.229 169.600 C 354.993 169.600,354.800 169.789,354.800 170.019 C 354.800 170.250,354.350 170.855,353.800 171.365 C 353.250 171.875,352.800 172.676,352.800 173.146 C 352.800 173.616,352.607 174.000,352.371 174.000 C 351.818 174.000,350.800 175.018,350.800 175.571 C 350.800 175.807,350.530 176.000,350.200 176.000 C 349.870 176.000,349.600 176.199,349.600 176.442 C 349.600 176.686,349.150 177.239,348.600 177.671 C 348.050 178.104,347.600 178.805,347.600 179.229 C 347.600 179.653,347.330 180.000,347.000 180.000 C 346.670 180.000,346.400 180.270,346.400 180.600 C 346.400 180.930,346.220 181.200,346.000 181.200 C 345.780 181.200,345.600 181.470,345.600 181.800 C 345.600 182.130,345.407 182.400,345.171 182.400 C 344.618 182.400,343.600 183.418,343.600 183.971 C 343.600 184.207,343.330 184.400,343.000 184.400 C 342.627 184.400,342.400 184.778,342.400 185.400 C 342.400 186.022,342.173 186.400,341.800 186.400 C 341.470 186.400,341.200 186.593,341.200 186.829 C 341.200 187.382,340.182 188.400,339.629 188.400 C 339.393 188.400,339.200 188.670,339.200 189.000 C 339.200 189.330,339.040 189.600,338.843 189.600 C 338.647 189.600,338.374 190.050,338.236 190.600 C 338.098 191.150,337.808 191.600,337.592 191.600 C 337.377 191.600,337.200 191.870,337.200 192.200 C 337.200 192.530,337.007 192.800,336.771 192.800 C 336.218 192.800,335.200 193.818,335.200 194.371 C 335.200 194.607,334.958 194.800,334.663 194.800 C 334.368 194.800,333.783 195.472,333.363 196.294 C 332.470 198.042,331.825 198.800,331.229 198.800 C 330.993 198.800,330.800 198.992,330.800 199.227 C 330.800 199.462,330.195 200.227,329.456 200.927 C 328.716 201.627,327.984 202.605,327.829 203.100 C 327.673 203.595,327.378 204.000,327.173 204.000 C 326.968 204.000,326.800 204.270,326.800 204.600 C 326.800 204.930,326.607 205.200,326.371 205.200 C 325.818 205.200,324.800 206.218,324.800 206.771 C 324.800 207.007,324.530 207.200,324.200 207.200 C 323.866 207.200,323.600 207.556,323.600 208.002 C 323.600 208.443,322.700 209.685,321.600 210.762 C 320.500 211.839,319.600 212.919,319.600 213.160 C 319.600 213.402,319.330 213.600,319.000 213.600 C 318.660 213.600,318.400 213.959,318.400 214.429 C 318.400 215.314,317.534 216.400,316.829 216.400 C 316.593 216.400,316.400 216.670,316.400 217.000 C 316.400 217.330,316.130 217.600,315.800 217.600 C 315.470 217.600,315.200 217.761,315.200 217.958 C 315.200 218.155,314.753 218.740,314.207 219.258 C 313.661 219.776,313.211 220.515,313.207 220.900 C 313.203 221.285,313.020 221.600,312.800 221.600 C 312.580 221.600,312.400 221.870,312.400 222.200 C 312.400 222.530,312.206 222.800,311.969 222.800 C 311.215 222.800,309.200 225.106,309.200 225.969 C 309.200 226.441,308.941 226.800,308.600 226.800 C 308.270 226.800,308.000 226.993,308.000 227.229 C 308.000 227.464,307.743 227.914,307.429 228.229 C 307.114 228.543,306.664 228.800,306.429 228.800 C 306.193 228.800,306.000 229.070,306.000 229.400 C 306.000 229.730,305.730 230.000,305.400 230.000 C 305.070 230.000,304.800 230.270,304.800 230.600 C 304.800 230.930,304.620 231.200,304.400 231.200 C 304.180 231.200,304.000 231.650,304.000 232.200 C 304.000 232.750,303.807 233.200,303.571 233.200 C 303.336 233.200,302.886 233.457,302.571 233.771 C 302.257 234.086,302.000 234.536,302.000 234.771 C 302.000 235.007,301.730 235.200,301.400 235.200 C 301.070 235.200,300.800 235.470,300.800 235.800 C 300.800 236.130,300.607 236.400,300.371 236.400 C 299.666 236.400,298.800 237.486,298.800 238.371 C 298.800 238.841,298.540 239.200,298.200 239.200 C 297.870 239.200,297.600 239.470,297.600 239.800 C 297.600 240.130,297.420 240.400,297.200 240.400 C 296.980 240.400,296.800 240.670,296.800 241.000 C 296.800 241.330,296.614 241.600,296.387 241.600 C 295.673 241.600,293.600 243.991,293.600 244.814 C 293.600 245.246,293.330 245.600,293.000 245.600 C 292.670 245.600,292.400 245.793,292.400 246.029 C 292.400 246.264,292.143 246.714,291.829 247.029 C 291.514 247.343,291.064 247.600,290.829 247.600 C 290.593 247.600,290.400 247.870,290.400 248.200 C 290.400 248.530,290.223 248.800,290.008 248.800 C 289.792 248.800,289.502 249.250,289.364 249.800 C 289.226 250.350,288.953 250.800,288.757 250.800 C 288.560 250.800,288.400 251.070,288.400 251.400 C 288.400 251.730,288.207 252.000,287.971 252.000 C 287.736 252.000,287.286 252.257,286.971 252.571 C 286.657 252.886,286.400 253.336,286.400 253.571 C 286.400 253.807,286.196 254.000,285.947 254.000 C 285.353 254.000,284.000 255.572,284.000 256.261 C 284.000 256.558,283.820 256.800,283.600 256.800 C 283.380 256.800,283.200 257.070,283.200 257.400 C 283.200 257.730,282.930 258.000,282.600 258.000 C 282.270 258.000,282.000 258.180,282.000 258.400 C 282.000 258.620,281.280 259.520,280.400 260.400 C 279.520 261.280,278.800 262.270,278.800 262.600 C 278.800 262.930,278.620 263.200,278.400 263.200 C 278.180 263.200,278.000 263.470,278.000 263.800 C 278.000 264.130,277.807 264.400,277.571 264.400 C 277.336 264.400,276.886 264.657,276.571 264.971 C 276.257 265.286,276.000 265.736,276.000 265.971 C 276.000 266.207,275.730 266.400,275.400 266.400 C 275.027 266.400,274.800 266.778,274.800 267.400 C 274.800 268.022,274.573 268.400,274.200 268.400 C 273.870 268.400,273.600 268.593,273.600 268.829 C 273.600 269.064,273.343 269.514,273.029 269.829 C 272.714 270.143,272.264 270.400,272.029 270.400 C 271.793 270.400,271.600 270.604,271.600 270.854 C 271.600 271.104,271.150 271.725,270.600 272.235 C 270.050 272.745,269.600 273.530,269.600 273.981 C 269.600 274.431,269.407 274.800,269.171 274.800 C 268.936 274.800,268.486 275.057,268.171 275.371 C 267.857 275.686,267.600 276.136,267.600 276.371 C 267.600 276.607,267.330 276.800,267.000 276.800 C 266.670 276.800,266.400 276.993,266.400 277.229 C 266.400 277.464,266.143 277.914,265.829 278.229 C 265.514 278.543,265.064 278.800,264.829 278.800 C 264.593 278.800,264.400 279.161,264.400 279.602 C 264.400 280.043,263.500 281.285,262.400 282.362 C 261.257 283.481,260.400 284.680,260.400 285.160 C 260.400 285.640,260.143 286.000,259.800 286.000 C 259.470 286.000,259.200 286.240,259.200 286.532 C 259.200 286.825,258.750 287.306,258.200 287.600 C 257.650 287.894,257.200 288.375,257.200 288.668 C 257.200 288.960,256.930 289.200,256.600 289.200 C 256.270 289.200,256.000 289.470,256.000 289.800 C 256.000 290.130,255.820 290.400,255.600 290.400 C 255.380 290.400,255.200 290.850,255.200 291.400 C 255.200 291.950,255.014 292.400,254.787 292.400 C 254.269 292.400,252.000 294.691,252.000 295.214 C 252.000 295.426,251.807 295.600,251.571 295.600 C 250.866 295.600,250.000 296.686,250.000 297.571 C 250.000 298.041,249.740 298.400,249.400 298.400 C 249.070 298.400,248.798 298.625,248.796 298.900 C 248.794 299.175,248.076 300.030,247.200 300.800 C 246.324 301.570,245.606 302.515,245.604 302.900 C 245.602 303.285,245.420 303.600,245.200 303.600 C 244.980 303.600,244.800 303.870,244.800 304.200 C 244.800 304.530,244.560 304.800,244.268 304.800 C 243.975 304.800,243.494 305.250,243.200 305.800 C 242.906 306.350,242.425 306.800,242.132 306.800 C 241.840 306.800,241.600 307.051,241.600 307.357 C 241.600 307.664,241.330 308.018,241.000 308.145 C 240.670 308.271,240.400 308.663,240.400 309.014 C 240.400 309.366,239.770 310.248,239.000 310.974 C 238.230 311.700,237.600 312.498,237.600 312.747 C 237.600 312.996,237.422 313.200,237.205 313.200 C 236.502 313.200,235.200 314.557,235.200 315.289 C 235.200 315.680,235.020 316.000,234.800 316.000 C 234.580 316.000,234.400 316.270,234.400 316.600 C 234.400 316.930,234.130 317.200,233.800 317.200 C 233.470 317.200,233.200 317.394,233.200 317.631 C 233.200 317.868,232.480 318.734,231.600 319.555 C 230.720 320.375,230.000 321.351,230.000 321.723 C 230.000 322.095,229.820 322.400,229.600 322.400 C 229.380 322.400,229.200 322.670,229.200 323.000 C 229.200 323.330,229.007 323.600,228.771 323.600 C 228.218 323.600,227.200 324.618,227.200 325.171 C 227.200 325.407,226.930 325.600,226.600 325.600 C 226.227 325.600,226.000 325.978,226.000 326.600 C 226.000 327.222,225.773 327.600,225.400 327.600 C 225.070 327.600,224.800 327.793,224.800 328.029 C 224.800 328.582,223.782 329.600,223.229 329.600 C 222.993 329.600,222.800 329.804,222.800 330.054 C 222.800 330.304,222.350 330.925,221.800 331.435 C 221.250 331.945,220.800 332.730,220.800 333.181 C 220.800 333.631,220.607 334.000,220.371 334.000 C 219.818 334.000,218.800 335.018,218.800 335.571 C 218.800 335.807,218.560 336.000,218.268 336.000 C 217.975 336.000,217.494 336.450,217.200 337.000 C 216.906 337.550,216.425 338.000,216.132 338.000 C 215.831 338.000,215.600 338.434,215.600 339.000 C 215.600 339.622,215.373 340.000,215.000 340.000 C 214.670 340.000,214.400 340.192,214.400 340.427 C 214.400 340.662,213.770 341.448,213.000 342.174 C 212.230 342.900,211.600 343.878,211.600 344.347 C 211.600 344.839,211.346 345.200,211.000 345.200 C 210.670 345.200,210.400 345.470,210.400 345.800 C 210.400 346.130,210.207 346.400,209.971 346.400 C 209.418 346.400,208.400 347.418,208.400 347.971 C 208.400 348.207,208.130 348.400,207.800 348.400 C 207.470 348.400,207.200 348.670,207.200 349.000 C 207.200 349.330,207.020 349.600,206.800 349.600 C 206.580 349.600,206.400 350.050,206.400 350.600 C 206.400 351.150,206.206 351.600,205.969 351.600 C 205.409 351.600,203.200 353.809,203.200 354.369 C 203.200 354.606,203.007 354.800,202.771 354.800 C 202.066 354.800,201.200 355.886,201.200 356.771 C 201.200 357.241,200.940 357.600,200.600 357.600 C 200.270 357.600,200.000 357.870,200.000 358.200 C 200.000 358.530,199.730 358.800,199.400 358.800 C 199.070 358.800,198.800 358.530,198.800 358.200 C 198.800 357.870,198.620 357.600,198.400 357.600 C 198.180 357.600,198.000 357.265,198.000 356.856 C 198.000 356.447,197.550 355.774,197.000 355.361 C 196.450 354.948,196.000 354.383,196.000 354.105 C 196.000 353.827,195.730 353.600,195.400 353.600 C 195.070 353.600,194.800 353.330,194.800 353.000 C 194.800 352.670,194.530 352.400,194.200 352.400 C 193.860 352.400,193.600 352.041,193.600 351.571 C 193.600 350.686,192.734 349.600,192.029 349.600 C 191.793 349.600,191.600 349.406,191.600 349.169 C 191.600 348.609,189.391 346.400,188.831 346.400 C 188.594 346.400,188.400 345.950,188.400 345.400 C 188.400 344.850,188.220 344.400,188.000 344.400 C 187.780 344.400,187.600 344.130,187.600 343.800 C 187.600 343.470,187.330 343.200,187.000 343.200 C 186.670 343.200,186.400 343.007,186.400 342.771 C 186.400 342.218,185.382 341.200,184.829 341.200 C 184.593 341.200,184.400 340.930,184.400 340.600 C 184.400 340.270,184.130 340.000,183.800 340.000 C 183.454 340.000,183.200 339.639,183.200 339.147 C 183.200 338.678,182.570 337.700,181.800 336.974 C 181.030 336.248,180.400 335.462,180.400 335.227 C 180.400 334.992,180.130 334.800,179.800 334.800 C 179.470 334.800,179.200 334.620,179.200 334.400 C 179.200 334.180,178.930 334.000,178.600 334.000 C 178.248 334.000,177.995 333.628,177.987 333.100 C 177.973 332.068,177.128 330.800,176.456 330.800 C 176.205 330.800,176.000 330.607,176.000 330.371 C 176.000 329.818,174.982 328.800,174.429 328.800 C 174.193 328.800,174.000 328.431,174.000 327.981 C 174.000 327.530,173.550 326.745,173.000 326.235 C 172.450 325.725,172.000 325.104,172.000 324.854 C 172.000 324.604,171.807 324.400,171.571 324.400 C 171.018 324.400,170.000 323.382,170.000 322.829 C 170.000 322.593,169.730 322.400,169.400 322.400 C 169.027 322.400,168.800 322.022,168.800 321.400 C 168.800 320.778,168.573 320.400,168.200 320.400 C 167.870 320.400,167.600 320.207,167.600 319.971 C 167.600 319.418,166.582 318.400,166.029 318.400 C 165.793 318.400,165.600 318.196,165.600 317.946 C 165.600 317.696,165.150 317.075,164.600 316.565 C 164.050 316.055,163.600 315.385,163.600 315.075 C 163.600 314.765,163.150 314.174,162.600 313.761 C 162.050 313.348,161.600 312.783,161.600 312.505 C 161.600 312.227,161.395 312.000,161.144 312.000 C 160.577 312.000,159.630 310.790,159.613 310.043 C 159.606 309.736,158.430 308.360,157.000 306.985 C 155.570 305.611,154.400 304.191,154.400 303.830 C 154.400 303.470,154.130 303.071,153.800 302.945 C 153.470 302.818,153.200 302.541,153.200 302.329 C 153.200 301.810,152.162 300.800,151.629 300.800 C 151.393 300.800,151.200 300.530,151.200 300.200 C 151.200 299.870,150.930 299.600,150.600 299.600 C 150.270 299.600,150.000 299.330,150.000 299.000 C 150.000 298.670,149.820 298.400,149.600 298.400 C 149.380 298.400,149.200 298.102,149.200 297.738 C 149.200 297.374,148.480 296.391,147.600 295.554 C 146.720 294.717,146.000 293.845,146.000 293.616 C 146.000 293.387,145.730 293.200,145.400 293.200 C 145.060 293.200,144.800 292.841,144.800 292.371 C 144.800 291.486,143.934 290.400,143.229 290.400 C 142.993 290.400,142.800 290.206,142.800 289.969 C 142.800 289.409,140.591 287.200,140.031 287.200 C 139.794 287.200,139.600 286.750,139.600 286.200 C 139.600 285.650,139.420 285.200,139.200 285.200 C 138.980 285.200,138.800 284.930,138.800 284.600 C 138.800 284.270,138.530 284.000,138.200 284.000 C 137.870 284.000,137.600 283.807,137.600 283.571 C 137.600 283.018,136.582 282.000,136.029 282.000 C 135.793 282.000,135.600 281.730,135.600 281.400 C 135.600 281.070,135.330 280.800,135.000 280.800 C 134.657 280.800,134.400 280.440,134.400 279.960 C 134.400 279.480,133.543 278.281,132.400 277.162 C 131.300 276.085,130.400 274.843,130.400 274.402 C 130.400 273.961,130.207 273.600,129.971 273.600 C 129.418 273.600,128.400 272.582,128.400 272.029 C 128.400 271.793,128.130 271.600,127.800 271.600 C 127.470 271.600,127.200 271.407,127.200 271.171 C 127.200 270.618,126.182 269.600,125.629 269.600 C 125.393 269.600,125.200 269.150,125.200 268.600 C 125.200 267.978,124.973 267.600,124.600 267.600 C 124.270 267.600,124.000 267.330,124.000 267.000 C 124.000 266.670,123.820 266.400,123.600 266.400 C 123.380 266.400,123.200 266.130,123.200 265.800 C 123.200 265.470,123.007 265.200,122.771 265.200 C 122.218 265.200,121.200 264.182,121.200 263.629 C 121.200 263.393,120.930 263.200,120.600 263.200 C 120.227 263.200,120.000 262.822,120.000 262.200 C 120.000 261.578,119.773 261.200,119.400 261.200 C 119.070 261.200,118.800 261.007,118.800 260.771 C 118.800 260.218,117.782 259.200,117.229 259.200 C 116.993 259.200,116.800 258.996,116.800 258.746 C 116.800 258.496,116.350 257.875,115.800 257.365 C 115.250 256.855,114.800 256.185,114.800 255.875 C 114.800 255.565,114.350 254.974,113.800 254.561 C 113.250 254.148,112.800 253.583,112.800 253.305 C 112.800 253.027,112.607 252.800,112.371 252.800 C 111.780 252.800,110.803 251.770,110.787 251.129 C 110.769 250.439,109.396 248.800,108.836 248.800 C 108.596 248.800,108.400 248.607,108.400 248.371 C 108.400 247.818,107.382 246.800,106.829 246.800 C 106.593 246.800,106.400 246.530,106.400 246.200 C 106.400 245.870,106.220 245.600,106.000 245.600 C 105.780 245.600,105.600 245.234,105.600 244.787 C 105.600 244.341,105.330 243.871,105.000 243.745 C 104.670 243.618,104.400 243.264,104.400 242.957 C 104.400 242.651,104.207 242.400,103.971 242.400 C 103.418 242.400,102.400 241.382,102.400 240.829 C 102.400 240.593,102.130 240.400,101.800 240.400 C 101.470 240.400,101.200 240.130,101.200 239.800 C 101.200 239.470,101.020 239.200,100.800 239.200 C 100.580 239.200,100.400 238.958,100.400 238.661 C 100.400 237.972,99.047 236.400,98.453 236.400 C 98.204 236.400,98.000 236.130,98.000 235.800 C 98.000 235.470,97.820 235.200,97.600 235.200 C 97.380 235.200,97.200 234.930,97.200 234.600 C 97.200 234.270,96.930 234.000,96.600 234.000 C 96.260 234.000,96.000 233.641,96.000 233.171 C 96.000 232.286,95.134 231.200,94.429 231.200 C 94.193 231.200,94.000 230.930,94.000 230.600 C 94.000 230.270,93.730 230.000,93.400 230.000 C 93.070 230.000,92.800 229.807,92.800 229.571 C 92.800 229.018,91.782 228.000,91.229 228.000 C 90.993 228.000,90.800 227.550,90.800 227.000 C 90.800 226.450,90.620 226.000,90.400 226.000 C 90.180 226.000,90.000 225.730,90.000 225.400 C 90.000 225.070,89.826 224.800,89.614 224.800 C 89.091 224.800,86.800 222.531,86.800 222.013 C 86.800 221.786,86.530 221.600,86.200 221.600 C 85.859 221.600,85.600 221.241,85.600 220.769 C 85.600 219.906,83.585 217.600,82.831 217.600 C 82.594 217.600,82.400 217.330,82.400 217.000 C 82.400 216.670,82.220 216.400,82.000 216.400 C 81.780 216.400,81.600 216.065,81.600 215.656 C 81.600 215.247,81.150 214.574,80.600 214.161 C 80.050 213.748,79.600 213.183,79.600 212.905 C 79.600 212.627,79.330 212.400,79.000 212.400 C 78.670 212.400,78.400 212.207,78.400 211.971 C 78.400 211.418,77.382 210.400,76.829 210.400 C 76.593 210.400,76.400 209.950,76.400 209.400 C 76.400 208.778,76.173 208.400,75.800 208.400 C 75.470 208.400,75.200 208.196,75.200 207.947 C 75.200 207.698,74.570 206.900,73.800 206.174 C 73.030 205.448,72.400 204.662,72.400 204.427 C 72.400 204.192,72.130 204.000,71.800 204.000 C 71.427 204.000,71.200 203.622,71.200 203.000 C 71.200 202.378,70.973 202.000,70.600 202.000 C 70.270 202.000,70.000 201.807,70.000 201.571 C 70.000 201.018,68.982 200.000,68.429 200.000 C 68.193 200.000,68.000 199.730,68.000 199.400 C 68.000 199.070,67.832 198.800,67.627 198.800 C 67.422 198.800,67.127 198.395,66.971 197.900 C 66.816 197.405,66.084 196.427,65.344 195.727 C 64.605 195.027,64.000 194.262,64.000 194.027 C 64.000 193.792,63.807 193.600,63.571 193.600 C 62.975 193.600,62.330 192.842,61.437 191.094 C 61.017 190.272,60.432 189.600,60.137 189.600 C 59.842 189.600,59.600 189.407,59.600 189.171 C 59.600 188.618,58.582 187.600,58.029 187.600 C 57.793 187.600,57.600 187.330,57.600 187.000 C 57.600 186.670,57.440 186.400,57.243 186.400 C 57.047 186.400,56.774 185.950,56.636 185.400 C 56.498 184.850,56.208 184.400,55.992 184.400 C 55.777 184.400,55.600 184.130,55.600 183.800 C 55.600 183.470,55.407 183.200,55.171 183.200 C 54.618 183.200,53.600 182.182,53.600 181.629 C 53.600 181.393,53.330 181.200,53.000 181.200 C 52.670 181.200,52.400 180.930,52.400 180.600 C 52.400 180.270,52.232 180.000,52.027 180.000 C 51.822 180.000,51.528 179.603,51.374 179.119 C 51.047 178.089,50.239 177.200,49.629 177.200 C 49.393 177.200,49.200 176.996,49.200 176.746 C 49.200 176.496,48.750 175.875,48.200 175.365 C 47.650 174.855,47.200 174.173,47.200 173.848 C 47.200 173.524,46.750 172.904,46.200 172.471 C 45.650 172.039,45.200 171.486,45.200 171.242 C 45.200 170.999,44.930 170.800,44.600 170.800 C 44.270 170.800,44.000 170.607,44.000 170.371 C 44.000 169.818,42.982 168.800,42.429 168.800 C 42.193 168.800,42.000 168.418,42.000 167.950 C 42.000 167.455,41.164 166.291,40.000 165.162 C 38.900 164.097,38.000 163.039,38.000 162.812 C 38.000 162.586,37.730 162.400,37.400 162.400 C 36.947 162.400,36.800 161.911,36.800 160.400 C 36.800 158.889,36.947 158.400,37.400 158.400 C 37.730 158.400,38.000 158.207,38.000 157.971 C 38.000 157.418,39.018 156.400,39.571 156.400 C 39.807 156.400,40.000 156.130,40.000 155.800 C 40.000 155.470,40.177 155.200,40.392 155.200 C 40.608 155.200,40.898 154.750,41.036 154.200 C 41.174 153.650,41.447 153.200,41.643 153.200 C 41.840 153.200,42.000 152.930,42.000 152.600 C 42.000 152.270,42.205 152.000,42.456 152.000 C 43.071 152.000,43.972 150.765,43.987 149.900 C 43.994 149.515,44.270 149.200,44.600 149.200 C 44.930 149.200,45.200 149.011,45.200 148.781 C 45.200 148.550,45.650 147.945,46.200 147.435 C 46.750 146.925,47.200 146.124,47.200 145.654 C 47.200 145.184,47.393 144.800,47.629 144.800 C 48.182 144.800,49.200 143.782,49.200 143.229 C 49.200 142.993,49.470 142.800,49.800 142.800 C 50.173 142.800,50.400 142.422,50.400 141.800 C 50.400 141.178,50.627 140.800,51.000 140.800 C 51.330 140.800,51.600 140.608,51.600 140.373 C 51.600 140.138,52.230 139.352,53.000 138.626 C 53.770 137.900,54.400 136.922,54.400 136.453 C 54.400 135.961,54.654 135.600,55.000 135.600 C 55.330 135.600,55.600 135.411,55.600 135.181 C 55.600 134.950,56.050 134.345,56.600 133.835 C 57.150 133.325,57.600 132.524,57.600 132.054 C 57.600 131.584,57.793 131.200,58.029 131.200 C 58.582 131.200,59.600 130.182,59.600 129.629 C 59.600 129.393,59.870 129.200,60.200 129.200 C 60.573 129.200,60.800 128.822,60.800 128.200 C 60.800 127.578,61.027 127.200,61.400 127.200 C 61.730 127.200,62.000 126.973,62.000 126.695 C 62.000 126.417,62.450 125.852,63.000 125.439 C 63.550 125.026,64.000 124.353,64.000 123.944 C 64.000 123.535,64.180 123.200,64.400 123.200 C 64.620 123.200,64.800 122.930,64.800 122.600 C 64.800 122.270,65.070 122.000,65.400 122.000 C 65.730 122.000,66.000 121.730,66.000 121.400 C 66.000 121.070,66.205 120.800,66.456 120.800 C 67.010 120.800,67.970 119.597,67.987 118.881 C 67.994 118.595,68.450 117.945,69.000 117.435 C 69.550 116.925,70.000 116.304,70.000 116.054 C 70.000 115.804,70.270 115.600,70.600 115.600 C 70.973 115.600,71.200 115.222,71.200 114.600 C 71.200 114.050,71.393 113.600,71.629 113.600 C 72.162 113.600,73.200 112.590,73.200 112.071 C 73.200 111.859,73.470 111.582,73.800 111.455 C 74.130 111.329,74.400 110.859,74.400 110.413 C 74.400 109.966,74.580 109.600,74.800 109.600 C 75.020 109.600,75.200 109.330,75.200 109.000 C 75.200 108.670,75.378 108.400,75.595 108.400 C 76.310 108.400,77.600 107.037,77.600 106.283 C 77.600 105.472,78.494 104.400,79.171 104.400 C 79.407 104.400,79.600 104.173,79.600 103.895 C 79.600 103.617,80.050 103.052,80.600 102.639 C 81.150 102.226,81.600 101.540,81.600 101.115 C 81.600 100.277,82.483 99.200,83.171 99.200 C 83.407 99.200,83.600 98.949,83.600 98.643 C 83.600 98.336,83.870 97.982,84.200 97.855 C 84.530 97.729,84.800 97.337,84.800 96.986 C 84.800 96.634,85.430 95.752,86.200 95.026 C 86.970 94.300,87.600 93.322,87.600 92.853 C 87.600 92.361,87.854 92.000,88.200 92.000 C 88.530 92.000,88.800 91.730,88.800 91.400 C 88.800 91.070,89.070 90.800,89.400 90.800 C 89.730 90.800,90.000 90.639,90.000 90.442 C 90.000 90.245,90.447 89.660,90.993 89.142 C 91.539 88.624,91.989 87.885,91.993 87.500 C 91.997 87.115,92.180 86.800,92.400 86.800 C 92.620 86.800,92.800 86.530,92.800 86.200 C 92.800 85.870,93.070 85.600,93.400 85.600 C 93.730 85.600,94.000 85.349,94.000 85.043 C 94.000 84.736,94.270 84.382,94.600 84.255 C 94.930 84.129,95.200 83.659,95.200 83.213 L 95.200 82.400 199.600 82.400 C 292.133 82.400,304.000 82.468,304.000 83.000 M193.600 123.200 L 193.600 128.400 192.200 128.400 C 191.430 128.400,190.800 128.580,190.800 128.800 C 190.800 129.033,189.467 129.200,187.600 129.200 C 185.022 129.200,184.400 129.317,184.400 129.800 C 184.400 130.272,183.844 130.400,181.800 130.400 C 180.333 130.400,179.200 130.574,179.200 130.800 C 179.200 131.020,178.564 131.200,177.787 131.200 C 176.901 131.200,176.289 131.423,176.145 131.800 C 176.003 132.170,175.395 132.400,174.557 132.400 C 173.617 132.400,173.200 132.585,173.200 133.000 C 173.200 133.400,172.800 133.600,172.000 133.600 C 171.340 133.600,170.800 133.780,170.800 134.000 C 170.800 134.220,170.350 134.400,169.800 134.400 C 169.178 134.400,168.800 134.627,168.800 135.000 C 168.800 135.373,168.422 135.600,167.800 135.600 C 167.250 135.600,166.800 135.780,166.800 136.000 C 166.800 136.220,166.350 136.400,165.800 136.400 C 165.178 136.400,164.800 136.627,164.800 137.000 C 164.800 137.373,164.422 137.600,163.800 137.600 C 163.178 137.600,162.800 137.827,162.800 138.200 C 162.800 138.578,162.419 138.800,161.771 138.800 C 160.717 138.800,159.600 139.608,159.600 140.371 C 159.600 140.607,159.150 140.800,158.600 140.800 C 158.050 140.800,157.600 140.980,157.600 141.200 C 157.600 141.420,157.330 141.600,157.000 141.600 C 156.670 141.600,156.400 141.870,156.400 142.200 C 156.400 142.530,156.130 142.800,155.800 142.800 C 155.470 142.800,155.200 143.070,155.200 143.400 C 155.200 143.740,154.841 144.000,154.371 144.000 C 153.486 144.000,152.400 144.866,152.400 145.571 C 152.400 145.807,152.206 146.000,151.969 146.000 C 151.409 146.000,149.200 148.209,149.200 148.769 C 149.200 149.006,149.007 149.200,148.771 149.200 C 148.218 149.200,147.200 150.218,147.200 150.771 C 147.200 151.007,147.006 151.200,146.769 151.200 C 146.209 151.200,144.000 153.409,144.000 153.969 C 144.000 154.206,143.730 154.400,143.400 154.400 C 143.060 154.400,142.800 154.759,142.800 155.229 C 142.800 156.114,141.934 157.200,141.229 157.200 C 140.993 157.200,140.800 157.451,140.800 157.757 C 140.800 158.064,140.530 158.418,140.200 158.545 C 139.870 158.671,139.600 159.141,139.600 159.587 C 139.600 160.034,139.420 160.400,139.200 160.400 C 138.980 160.400,138.800 160.670,138.800 161.000 C 138.800 161.330,138.530 161.600,138.200 161.600 C 137.827 161.600,137.600 161.978,137.600 162.600 C 137.600 163.150,137.420 163.600,137.200 163.600 C 136.980 163.600,136.800 164.050,136.800 164.600 C 136.800 165.222,136.573 165.600,136.200 165.600 C 135.834 165.600,135.600 165.973,135.600 166.557 C 135.600 167.084,135.330 167.618,135.000 167.745 C 134.670 167.871,134.400 168.341,134.400 168.787 C 134.400 169.234,134.220 169.600,134.000 169.600 C 133.780 169.600,133.600 170.140,133.600 170.800 C 133.600 171.600,133.400 172.000,133.000 172.000 C 132.627 172.000,132.400 172.378,132.400 173.000 C 132.400 173.550,132.220 174.000,132.000 174.000 C 131.780 174.000,131.600 174.720,131.600 175.600 C 131.600 176.756,131.433 177.200,131.000 177.200 C 130.585 177.200,130.400 177.617,130.400 178.551 C 130.400 179.294,130.130 180.126,129.800 180.400 C 129.403 180.730,129.200 181.625,129.200 183.049 C 129.200 184.232,129.020 185.200,128.800 185.200 C 128.567 185.200,128.400 186.533,128.400 188.400 C 128.400 190.978,128.283 191.600,127.800 191.600 C 127.367 191.600,127.200 192.044,127.200 193.200 L 127.200 194.800 121.600 194.800 L 116.000 194.800 116.000 200.400 L 116.000 206.000 121.600 206.000 L 127.200 206.000 127.200 207.600 C 127.200 208.756,127.367 209.200,127.800 209.200 C 128.283 209.200,128.400 209.822,128.400 212.400 C 128.400 214.267,128.567 215.600,128.800 215.600 C 129.020 215.600,129.200 216.568,129.200 217.751 C 129.200 219.175,129.403 220.070,129.800 220.400 C 130.130 220.674,130.400 221.506,130.400 222.249 C 130.400 223.183,130.585 223.600,131.000 223.600 C 131.433 223.600,131.600 224.044,131.600 225.200 C 131.600 226.080,131.780 226.800,132.000 226.800 C 132.220 226.800,132.400 227.250,132.400 227.800 C 132.400 228.422,132.627 228.800,133.000 228.800 C 133.400 228.800,133.600 229.200,133.600 230.000 C 133.600 230.660,133.780 231.200,134.000 231.200 C 134.220 231.200,134.400 231.746,134.400 232.413 C 134.400 233.121,134.649 233.721,135.000 233.855 C 135.330 233.982,135.600 234.336,135.600 234.643 C 135.600 234.949,135.870 235.200,136.200 235.200 C 136.573 235.200,136.800 235.578,136.800 236.200 C 136.800 236.750,136.980 237.200,137.200 237.200 C 137.420 237.200,137.600 237.650,137.600 238.200 C 137.600 238.822,137.827 239.200,138.200 239.200 C 138.530 239.200,138.800 239.470,138.800 239.800 C 138.800 240.130,138.980 240.400,139.200 240.400 C 139.420 240.400,139.600 240.766,139.600 241.213 C 139.600 241.659,139.870 242.129,140.200 242.255 C 140.530 242.382,140.800 242.736,140.800 243.043 C 140.800 243.349,141.070 243.600,141.400 243.600 C 141.740 243.600,142.000 243.958,142.000 244.426 C 142.000 245.272,145.994 249.600,146.774 249.600 C 147.008 249.600,147.200 249.793,147.200 250.029 C 147.200 250.582,148.218 251.600,148.771 251.600 C 149.007 251.600,149.200 251.794,149.200 252.031 C 149.200 252.591,151.409 254.800,151.969 254.800 C 152.206 254.800,152.400 254.993,152.400 255.229 C 152.400 255.782,153.418 256.800,153.971 256.800 C 154.207 256.800,154.400 257.070,154.400 257.400 C 154.400 257.773,154.778 258.000,155.400 258.000 C 156.022 258.000,156.400 258.227,156.400 258.600 C 156.400 258.930,156.670 259.200,157.000 259.200 C 157.330 259.200,157.600 259.380,157.600 259.600 C 157.600 259.820,158.050 260.000,158.600 260.000 C 159.150 260.000,159.600 260.193,159.600 260.429 C 159.600 261.192,160.717 262.000,161.771 262.000 C 162.419 262.000,162.800 262.222,162.800 262.600 C 162.800 262.973,163.178 263.200,163.800 263.200 C 164.350 263.200,164.800 263.405,164.800 263.656 C 164.800 264.328,166.068 265.173,167.100 265.187 C 167.628 265.195,168.000 265.448,168.000 265.800 C 168.000 266.219,168.422 266.400,169.400 266.400 C 170.170 266.400,170.800 266.580,170.800 266.800 C 170.800 267.020,171.340 267.200,172.000 267.200 C 172.800 267.200,173.200 267.400,173.200 267.800 C 173.200 268.215,173.617 268.400,174.557 268.400 C 175.395 268.400,176.003 268.630,176.145 269.000 C 176.289 269.377,176.901 269.600,177.787 269.600 C 178.564 269.600,179.200 269.780,179.200 270.000 C 179.200 270.220,180.190 270.400,181.400 270.400 C 183.089 270.400,183.600 270.539,183.600 271.000 C 183.600 271.480,184.200 271.600,186.600 271.600 C 188.333 271.600,189.600 271.769,189.600 272.000 C 189.600 272.220,190.494 272.400,191.587 272.400 L 193.575 272.400 193.687 277.100 L 193.800 281.800 199.500 281.911 L 205.200 282.022 205.200 277.211 L 205.200 272.400 207.200 272.400 C 208.300 272.400,209.200 272.220,209.200 272.000 C 209.200 271.767,210.533 271.600,212.400 271.600 C 214.978 271.600,215.600 271.483,215.600 271.000 C 215.600 270.547,216.089 270.400,217.600 270.400 C 218.700 270.400,219.600 270.220,219.600 270.000 C 219.600 269.780,220.320 269.600,221.200 269.600 C 222.356 269.600,222.800 269.433,222.800 269.000 C 222.800 268.567,223.244 268.400,224.400 268.400 C 225.556 268.400,226.000 268.233,226.000 267.800 C 226.000 267.427,226.378 267.200,227.000 267.200 C 227.550 267.200,228.000 267.020,228.000 266.800 C 228.000 266.580,228.636 266.400,229.413 266.400 C 230.299 266.400,230.911 266.177,231.055 265.800 C 231.182 265.470,231.716 265.200,232.243 265.200 C 232.769 265.200,233.200 265.020,233.200 264.800 C 233.200 264.580,233.566 264.400,234.013 264.400 C 234.459 264.400,234.929 264.130,235.055 263.800 C 235.182 263.470,235.536 263.200,235.843 263.200 C 236.149 263.200,236.400 262.930,236.400 262.600 C 236.400 262.227,236.778 262.000,237.400 262.000 C 237.950 262.000,238.400 261.820,238.400 261.600 C 238.400 261.380,238.850 261.200,239.400 261.200 C 240.022 261.200,240.400 260.973,240.400 260.600 C 240.400 260.270,240.593 260.000,240.829 260.000 C 241.382 260.000,242.400 258.982,242.400 258.429 C 242.400 258.193,242.825 258.000,243.344 258.000 C 243.884 258.000,244.609 257.572,245.039 257.000 C 245.452 256.450,246.017 256.000,246.295 256.000 C 246.573 256.000,246.800 255.807,246.800 255.571 C 246.800 255.018,247.818 254.000,248.371 254.000 C 248.607 254.000,248.800 253.730,248.800 253.400 C 248.800 253.070,249.070 252.800,249.400 252.800 C 249.730 252.800,250.000 252.607,250.000 252.371 C 250.000 251.818,251.018 250.800,251.571 250.800 C 251.807 250.800,252.000 250.607,252.000 250.371 C 252.000 249.818,253.018 248.800,253.571 248.800 C 253.807 248.800,254.000 248.530,254.000 248.200 C 254.000 247.870,254.270 247.600,254.600 247.600 C 254.930 247.600,255.200 247.439,255.200 247.242 C 255.200 247.045,255.647 246.460,256.193 245.942 C 256.739 245.424,257.189 244.685,257.193 244.300 C 257.197 243.915,257.380 243.600,257.600 243.600 C 257.820 243.600,258.000 243.330,258.000 243.000 C 258.000 242.670,258.270 242.400,258.600 242.400 C 258.930 242.400,259.200 242.149,259.200 241.843 C 259.200 241.536,259.470 241.182,259.800 241.055 C 260.130 240.929,260.400 240.459,260.400 240.013 C 260.400 239.566,260.580 239.200,260.800 239.200 C 261.020 239.200,261.200 238.750,261.200 238.200 C 261.200 237.578,261.427 237.200,261.800 237.200 C 262.130 237.200,262.400 236.930,262.400 236.600 C 262.400 236.270,262.580 236.000,262.800 236.000 C 263.020 236.000,263.200 235.550,263.200 235.000 C 263.200 234.378,263.427 234.000,263.800 234.000 C 264.140 234.000,264.400 233.641,264.400 233.171 C 264.400 232.716,264.670 232.073,265.000 231.743 C 265.330 231.413,265.600 230.616,265.600 229.971 C 265.600 229.327,265.780 228.800,266.000 228.800 C 266.220 228.800,266.400 228.350,266.400 227.800 C 266.400 227.178,266.627 226.800,267.000 226.800 C 267.433 226.800,267.600 226.356,267.600 225.200 C 267.600 224.320,267.780 223.600,268.000 223.600 C 268.220 223.600,268.400 222.989,268.400 222.243 C 268.400 221.405,268.630 220.797,269.000 220.655 C 269.421 220.494,269.600 219.837,269.600 218.455 C 269.600 217.073,269.779 216.417,270.200 216.255 C 270.654 216.081,270.800 215.346,270.800 213.236 C 270.800 211.702,270.980 210.336,271.200 210.200 C 271.420 210.064,271.600 209.063,271.600 207.976 L 271.600 206.000 276.400 206.000 L 281.200 206.000 281.200 200.400 L 281.200 194.800 276.400 194.800 L 271.600 194.800 271.600 192.824 C 271.600 191.737,271.420 190.736,271.200 190.600 C 270.980 190.464,270.800 189.098,270.800 187.564 C 270.800 185.454,270.654 184.719,270.200 184.545 C 269.779 184.383,269.600 183.727,269.600 182.345 C 269.600 180.963,269.421 180.306,269.000 180.145 C 268.630 180.003,268.400 179.395,268.400 178.557 C 268.400 177.811,268.220 177.200,268.000 177.200 C 267.780 177.200,267.600 176.480,267.600 175.600 C 267.600 174.444,267.433 174.000,267.000 174.000 C 266.627 174.000,266.400 173.622,266.400 173.000 C 266.400 172.450,266.220 172.000,266.000 172.000 C 265.780 172.000,265.600 171.473,265.600 170.829 C 265.600 170.184,265.330 169.387,265.000 169.057 C 264.670 168.727,264.400 168.084,264.400 167.629 C 264.400 167.159,264.140 166.800,263.800 166.800 C 263.427 166.800,263.200 166.422,263.200 165.800 C 263.200 165.250,263.020 164.800,262.800 164.800 C 262.580 164.800,262.400 164.530,262.400 164.200 C 262.400 163.870,262.130 163.600,261.800 163.600 C 261.427 163.600,261.200 163.222,261.200 162.600 C 261.200 162.050,261.020 161.600,260.800 161.600 C 260.580 161.600,260.400 161.330,260.400 161.000 C 260.400 160.670,260.130 160.400,259.800 160.400 C 259.427 160.400,259.200 160.022,259.200 159.400 C 259.200 158.778,258.973 158.400,258.600 158.400 C 258.270 158.400,258.000 158.130,258.000 157.800 C 258.000 157.470,257.820 157.200,257.600 157.200 C 257.380 157.200,257.200 156.865,257.200 156.456 C 257.200 156.047,256.750 155.374,256.200 154.961 C 255.650 154.548,255.200 153.983,255.200 153.705 C 255.200 153.427,254.930 153.200,254.600 153.200 C 254.270 153.200,254.000 152.930,254.000 152.600 C 254.000 152.270,253.807 152.000,253.571 152.000 C 253.018 152.000,252.000 150.982,252.000 150.429 C 252.000 150.193,251.807 150.000,251.571 150.000 C 251.018 150.000,250.000 148.982,250.000 148.429 C 250.000 148.193,249.730 148.000,249.400 148.000 C 249.070 148.000,248.800 147.730,248.800 147.400 C 248.800 147.070,248.607 146.800,248.371 146.800 C 247.818 146.800,246.800 145.782,246.800 145.229 C 246.800 144.993,246.573 144.800,246.295 144.800 C 246.017 144.800,245.452 144.350,245.039 143.800 C 244.609 143.228,243.884 142.800,243.344 142.800 C 242.825 142.800,242.400 142.607,242.400 142.371 C 242.400 141.666,241.314 140.800,240.429 140.800 C 239.959 140.800,239.600 140.540,239.600 140.200 C 239.600 139.870,239.330 139.600,239.000 139.600 C 238.670 139.600,238.400 139.420,238.400 139.200 C 238.400 138.980,237.950 138.800,237.400 138.800 C 236.778 138.800,236.400 138.573,236.400 138.200 C 236.400 137.862,236.042 137.600,235.581 137.600 C 235.130 137.600,234.345 137.150,233.835 136.600 C 233.325 136.050,232.543 135.600,232.097 135.600 C 231.651 135.600,231.182 135.330,231.055 135.000 C 230.911 134.623,230.299 134.400,229.413 134.400 C 228.636 134.400,228.000 134.220,228.000 134.000 C 228.000 133.780,227.550 133.600,227.000 133.600 C 226.378 133.600,226.000 133.373,226.000 133.000 C 226.000 132.569,225.560 132.400,224.443 132.400 C 223.428 132.400,222.805 132.191,222.655 131.800 C 222.511 131.423,221.899 131.200,221.013 131.200 C 220.236 131.200,219.600 131.020,219.600 130.800 C 219.600 130.580,218.719 130.400,217.643 130.400 C 216.272 130.400,215.617 130.220,215.455 129.800 C 215.276 129.332,214.477 129.200,211.813 129.200 C 209.804 129.200,208.400 129.035,208.400 128.800 C 208.400 128.580,207.680 128.400,206.800 128.400 L 205.200 128.400 205.200 123.200 L 205.200 118.000 199.400 118.000 L 193.600 118.000 193.600 123.200 M193.600 156.200 L 193.600 172.800 199.400 172.800 L 205.200 172.800 205.200 156.200 L 205.200 139.600 206.157 139.600 C 206.684 139.600,207.218 139.870,207.345 140.200 C 207.521 140.660,208.279 140.800,210.587 140.800 C 212.329 140.800,213.600 140.969,213.600 141.200 C 213.600 141.420,214.320 141.600,215.200 141.600 C 216.356 141.600,216.800 141.767,216.800 142.200 C 216.800 142.603,217.203 142.800,218.029 142.800 C 218.704 142.800,219.527 143.070,219.857 143.400 C 220.187 143.730,220.984 144.000,221.629 144.000 C 222.273 144.000,222.800 144.180,222.800 144.400 C 222.800 144.620,223.231 144.800,223.757 144.800 C 224.284 144.800,224.818 145.070,224.945 145.400 C 225.071 145.730,225.631 146.000,226.187 146.000 C 226.744 146.000,227.200 146.180,227.200 146.400 C 227.200 146.620,227.650 146.800,228.200 146.800 C 228.822 146.800,229.200 147.027,229.200 147.400 C 229.200 147.773,229.578 148.000,230.200 148.000 C 230.822 148.000,231.200 148.227,231.200 148.600 C 231.200 148.930,231.470 149.200,231.800 149.200 C 232.130 149.200,232.400 149.380,232.400 149.600 C 232.400 149.820,232.850 150.000,233.400 150.000 C 233.950 150.000,234.400 150.193,234.400 150.429 C 234.400 150.982,235.418 152.000,235.971 152.000 C 236.207 152.000,236.400 152.270,236.400 152.600 C 236.400 152.973,236.778 153.200,237.400 153.200 C 237.950 153.200,238.400 153.380,238.400 153.600 C 238.400 153.820,238.670 154.000,239.000 154.000 C 239.330 154.000,239.600 154.194,239.600 154.431 C 239.600 154.991,241.809 157.200,242.369 157.200 C 242.606 157.200,242.800 157.393,242.800 157.629 C 242.800 158.182,243.818 159.200,244.371 159.200 C 244.607 159.200,244.800 159.470,244.800 159.800 C 244.800 160.130,244.980 160.400,245.200 160.400 C 245.420 160.400,245.600 160.670,245.600 161.000 C 245.600 161.330,245.870 161.600,246.200 161.600 C 246.530 161.600,246.800 161.935,246.800 162.344 C 246.800 162.753,247.250 163.426,247.800 163.839 C 248.350 164.252,248.800 164.817,248.800 165.095 C 248.800 165.373,249.070 165.600,249.400 165.600 C 249.773 165.600,250.000 165.978,250.000 166.600 C 250.000 167.150,250.180 167.600,250.400 167.600 C 250.620 167.600,250.800 167.870,250.800 168.200 C 250.800 168.530,251.070 168.800,251.400 168.800 C 251.773 168.800,252.000 169.178,252.000 169.800 C 252.000 170.350,252.160 170.800,252.357 170.800 C 252.553 170.800,252.826 171.250,252.964 171.800 C 253.102 172.350,253.392 172.800,253.608 172.800 C 253.823 172.800,254.000 173.250,254.000 173.800 C 254.000 174.422,254.227 174.800,254.600 174.800 C 255.000 174.800,255.200 175.200,255.200 176.000 C 255.200 176.660,255.380 177.200,255.600 177.200 C 255.820 177.200,256.000 177.746,256.000 178.413 C 256.000 179.121,256.249 179.721,256.600 179.855 C 256.991 180.005,257.200 180.628,257.200 181.643 C 257.200 182.499,257.380 183.200,257.600 183.200 C 257.820 183.200,258.000 183.727,258.000 184.371 C 258.000 185.016,258.270 185.813,258.600 186.143 C 259.002 186.544,259.200 187.546,259.200 189.171 C 259.200 191.063,259.333 191.600,259.800 191.600 C 260.233 191.600,260.400 192.044,260.400 193.200 L 260.400 194.800 243.200 194.800 L 226.000 194.800 226.000 200.400 L 226.000 206.000 243.200 206.000 L 260.400 206.000 260.400 207.600 C 260.400 208.756,260.233 209.200,259.800 209.200 C 259.333 209.200,259.200 209.737,259.200 211.629 C 259.200 213.254,259.002 214.256,258.600 214.657 C 258.270 214.987,258.000 215.784,258.000 216.429 C 258.000 217.073,257.820 217.600,257.600 217.600 C 257.380 217.600,257.200 218.301,257.200 219.157 C 257.200 220.172,256.991 220.795,256.600 220.945 C 256.249 221.079,256.000 221.679,256.000 222.387 C 256.000 223.054,255.820 223.600,255.600 223.600 C 255.380 223.600,255.200 224.140,255.200 224.800 C 255.200 225.600,255.000 226.000,254.600 226.000 C 254.227 226.000,254.000 226.378,254.000 227.000 C 254.000 227.550,253.840 228.000,253.643 228.000 C 253.447 228.000,253.174 228.450,253.036 229.000 C 252.898 229.550,252.608 230.000,252.392 230.000 C 252.177 230.000,252.000 230.450,252.000 231.000 C 252.000 231.622,251.773 232.000,251.400 232.000 C 251.070 232.000,250.800 232.270,250.800 232.600 C 250.800 232.930,250.620 233.200,250.400 233.200 C 250.180 233.200,250.000 233.650,250.000 234.200 C 250.000 234.822,249.773 235.200,249.400 235.200 C 249.070 235.200,248.800 235.427,248.800 235.705 C 248.800 235.983,248.350 236.548,247.800 236.961 C 247.250 237.374,246.800 238.047,246.800 238.456 C 246.800 238.865,246.530 239.200,246.200 239.200 C 245.870 239.200,245.600 239.470,245.600 239.800 C 245.600 240.130,245.420 240.400,245.200 240.400 C 244.980 240.400,244.800 240.670,244.800 241.000 C 244.800 241.330,244.607 241.600,244.371 241.600 C 243.818 241.600,242.800 242.618,242.800 243.171 C 242.800 243.407,242.606 243.600,242.369 243.600 C 241.809 243.600,239.600 245.809,239.600 246.369 C 239.600 246.606,239.330 246.800,239.000 246.800 C 238.670 246.800,238.400 246.980,238.400 247.200 C 238.400 247.420,237.950 247.600,237.400 247.600 C 236.778 247.600,236.400 247.827,236.400 248.200 C 236.400 248.530,236.207 248.800,235.971 248.800 C 235.418 248.800,234.400 249.818,234.400 250.371 C 234.400 250.607,233.950 250.800,233.400 250.800 C 232.778 250.800,232.400 251.027,232.400 251.400 C 232.400 251.730,232.130 252.000,231.800 252.000 C 231.470 252.000,231.200 252.180,231.200 252.400 C 231.200 252.620,230.750 252.800,230.200 252.800 C 229.578 252.800,229.200 253.027,229.200 253.400 C 229.200 253.773,228.822 254.000,228.200 254.000 C 227.650 254.000,227.200 254.180,227.200 254.400 C 227.200 254.620,226.744 254.800,226.187 254.800 C 225.631 254.800,225.071 255.070,224.945 255.400 C 224.818 255.730,224.284 256.000,223.757 256.000 C 223.231 256.000,222.800 256.180,222.800 256.400 C 222.800 256.620,222.384 256.800,221.876 256.800 C 221.369 256.800,220.604 257.064,220.176 257.387 C 219.749 257.710,218.815 257.980,218.100 257.987 C 217.217 257.996,216.800 258.192,216.800 258.600 C 216.800 259.033,216.356 259.200,215.200 259.200 C 214.320 259.200,213.600 259.380,213.600 259.600 C 213.600 259.826,212.467 260.000,211.000 260.000 C 208.956 260.000,208.400 260.128,208.400 260.600 C 208.400 261.033,207.956 261.200,206.800 261.200 L 205.200 261.200 205.200 244.000 L 205.200 226.800 199.643 226.800 C 194.944 226.800,194.048 226.898,193.843 227.433 C 193.709 227.781,193.600 235.521,193.600 244.633 L 193.600 261.200 192.243 261.200 C 191.405 261.200,190.797 260.970,190.655 260.600 C 190.486 260.158,189.788 260.000,188.013 260.000 C 186.671 260.000,185.600 259.822,185.600 259.600 C 185.600 259.380,184.899 259.200,184.043 259.200 C 183.028 259.200,182.405 258.991,182.255 258.600 C 182.111 258.223,181.499 258.000,180.613 258.000 C 179.836 258.000,179.200 257.822,179.200 257.605 C 179.200 257.387,178.480 257.094,177.600 256.954 C 176.720 256.813,176.000 256.541,176.000 256.349 C 176.000 256.157,175.550 256.000,175.000 256.000 C 174.378 256.000,174.000 255.773,174.000 255.400 C 174.000 255.027,173.622 254.800,173.000 254.800 C 172.450 254.800,172.000 254.620,172.000 254.400 C 172.000 254.180,171.550 254.000,171.000 254.000 C 170.378 254.000,170.000 253.773,170.000 253.400 C 170.000 253.070,169.730 252.800,169.400 252.800 C 169.070 252.800,168.800 252.620,168.800 252.400 C 168.800 252.180,168.350 252.000,167.800 252.000 C 167.178 252.000,166.800 251.773,166.800 251.400 C 166.800 251.027,166.422 250.800,165.800 250.800 C 165.178 250.800,164.800 250.573,164.800 250.200 C 164.800 249.870,164.530 249.600,164.200 249.600 C 163.870 249.600,163.600 249.420,163.600 249.200 C 163.600 248.980,163.330 248.800,163.000 248.800 C 162.670 248.800,162.400 248.607,162.400 248.371 C 162.400 247.666,161.314 246.800,160.429 246.800 C 159.959 246.800,159.600 246.540,159.600 246.200 C 159.600 245.870,159.330 245.600,159.000 245.600 C 158.670 245.600,158.400 245.407,158.400 245.171 C 158.400 244.618,157.382 243.600,156.829 243.600 C 156.593 243.600,156.400 243.330,156.400 243.000 C 156.400 242.670,156.207 242.400,155.971 242.400 C 155.418 242.400,154.400 241.382,154.400 240.829 C 154.400 240.593,154.130 240.400,153.800 240.400 C 153.459 240.400,153.200 240.041,153.200 239.569 C 153.200 238.706,151.185 236.400,150.431 236.400 C 150.194 236.400,150.000 236.130,150.000 235.800 C 150.000 235.470,149.820 235.200,149.600 235.200 C 149.380 235.200,149.200 234.750,149.200 234.200 C 149.200 233.578,148.973 233.200,148.600 233.200 C 148.227 233.200,148.000 232.822,148.000 232.200 C 148.000 231.650,147.820 231.200,147.600 231.200 C 147.380 231.200,147.200 230.930,147.200 230.600 C 147.200 230.270,146.930 230.000,146.600 230.000 C 146.227 230.000,146.000 229.622,146.000 229.000 C 146.000 228.378,145.773 228.000,145.400 228.000 C 145.027 228.000,144.800 227.622,144.800 227.000 C 144.800 226.450,144.620 226.000,144.400 226.000 C 144.180 226.000,144.000 225.544,144.000 224.987 C 144.000 224.431,143.730 223.871,143.400 223.745 C 143.030 223.603,142.800 222.995,142.800 222.157 C 142.800 221.411,142.620 220.800,142.400 220.800 C 142.180 220.800,142.000 220.164,142.000 219.387 C 142.000 218.501,141.777 217.889,141.400 217.745 C 140.980 217.583,140.800 216.928,140.800 215.557 C 140.800 214.084,140.652 213.600,140.200 213.600 C 139.728 213.600,139.600 213.044,139.600 211.000 C 139.600 209.533,139.426 208.400,139.200 208.400 C 138.980 208.400,138.800 207.860,138.800 207.200 L 138.800 206.000 154.800 206.000 L 170.800 206.000 170.800 200.400 L 170.800 194.800 154.800 194.800 L 138.800 194.800 138.800 193.600 C 138.800 192.940,138.980 192.400,139.200 192.400 C 139.422 192.400,139.600 191.329,139.600 189.987 C 139.600 188.212,139.758 187.514,140.200 187.345 C 140.618 187.184,140.800 186.533,140.800 185.200 C 140.800 183.867,140.982 183.216,141.400 183.055 C 141.777 182.911,142.000 182.299,142.000 181.413 C 142.000 180.636,142.180 180.000,142.400 180.000 C 142.620 180.000,142.800 179.389,142.800 178.643 C 142.800 177.805,143.030 177.197,143.400 177.055 C 143.730 176.929,144.000 176.369,144.000 175.813 C 144.000 175.256,144.180 174.800,144.400 174.800 C 144.620 174.800,144.800 174.350,144.800 173.800 C 144.800 173.178,145.027 172.800,145.400 172.800 C 145.773 172.800,146.000 172.422,146.000 171.800 C 146.000 171.178,146.227 170.800,146.600 170.800 C 146.930 170.800,147.200 170.530,147.200 170.200 C 147.200 169.870,147.380 169.600,147.600 169.600 C 147.820 169.600,148.000 169.150,148.000 168.600 C 148.000 168.050,148.205 167.600,148.456 167.600 C 149.128 167.600,149.973 166.332,149.987 165.300 C 149.994 164.805,150.194 164.400,150.431 164.400 C 151.185 164.400,153.200 162.094,153.200 161.231 C 153.200 160.759,153.459 160.400,153.800 160.400 C 154.130 160.400,154.400 160.207,154.400 159.971 C 154.400 159.418,155.418 158.400,155.971 158.400 C 156.207 158.400,156.400 158.130,156.400 157.800 C 156.400 157.470,156.593 157.200,156.829 157.200 C 157.382 157.200,158.400 156.182,158.400 155.629 C 158.400 155.393,158.670 155.200,159.000 155.200 C 159.330 155.200,159.600 154.930,159.600 154.600 C 159.600 154.260,159.959 154.000,160.429 154.000 C 161.314 154.000,162.400 153.134,162.400 152.429 C 162.400 152.193,162.670 152.000,163.000 152.000 C 163.330 152.000,163.600 151.820,163.600 151.600 C 163.600 151.380,163.966 151.200,164.413 151.200 C 164.859 151.200,165.329 150.930,165.455 150.600 C 165.582 150.270,165.936 150.000,166.243 150.000 C 166.549 150.000,166.800 149.840,166.800 149.643 C 166.800 149.447,167.250 149.174,167.800 149.036 C 168.350 148.898,168.800 148.608,168.800 148.392 C 168.800 148.177,169.070 148.000,169.400 148.000 C 169.730 148.000,170.000 147.730,170.000 147.400 C 170.000 147.027,170.378 146.800,171.000 146.800 C 171.550 146.800,172.000 146.620,172.000 146.400 C 172.000 146.180,172.450 146.000,173.000 146.000 C 173.622 146.000,174.000 145.773,174.000 145.400 C 174.000 145.027,174.378 144.800,175.000 144.800 C 175.550 144.800,176.000 144.620,176.000 144.400 C 176.000 144.180,176.636 144.000,177.413 144.000 C 178.299 144.000,178.911 143.777,179.055 143.400 C 179.205 143.009,179.828 142.800,180.843 142.800 C 181.960 142.800,182.400 142.631,182.400 142.200 C 182.400 141.747,182.889 141.600,184.400 141.600 C 185.500 141.600,186.400 141.420,186.400 141.200 C 186.400 140.978,187.471 140.800,188.813 140.800 C 190.588 140.800,191.286 140.642,191.455 140.200 C 191.582 139.870,192.116 139.600,192.643 139.600 L 193.600 139.600 193.600 156.200 M196.800 189.000 C 196.800 189.393,196.407 189.600,195.661 189.600 C 193.826 189.600,190.800 191.325,190.800 192.371 C 190.800 192.607,190.530 192.800,190.200 192.800 C 189.834 192.800,189.600 193.173,189.600 193.757 C 189.600 194.284,189.330 194.818,189.000 194.945 C 188.623 195.089,188.400 195.701,188.400 196.587 C 188.400 197.364,188.220 198.000,188.000 198.000 C 187.778 198.000,187.600 199.067,187.600 200.400 C 187.600 201.733,187.778 202.800,188.000 202.800 C 188.220 202.800,188.400 203.436,188.400 204.213 C 188.400 205.099,188.623 205.711,189.000 205.855 C 189.330 205.982,189.600 206.516,189.600 207.043 C 189.600 207.627,189.834 208.000,190.200 208.000 C 190.530 208.000,190.800 208.178,190.800 208.395 C 190.800 209.098,192.157 210.400,192.889 210.400 C 193.280 210.400,193.600 210.580,193.600 210.800 C 193.600 211.020,194.140 211.200,194.800 211.200 C 195.600 211.200,196.000 211.400,196.000 211.800 C 196.000 212.286,196.646 212.400,199.413 212.400 C 202.077 212.400,202.876 212.268,203.055 211.800 C 203.182 211.470,203.716 211.200,204.243 211.200 C 204.769 211.200,205.200 211.020,205.200 210.800 C 205.200 210.580,205.650 210.400,206.200 210.400 C 206.822 210.400,207.200 210.173,207.200 209.800 C 207.200 209.470,207.470 209.200,207.800 209.200 C 208.130 209.200,208.400 208.930,208.400 208.600 C 208.400 208.270,208.580 208.000,208.800 208.000 C 209.020 208.000,209.200 207.550,209.200 207.000 C 209.200 206.378,209.427 206.000,209.800 206.000 C 210.166 206.000,210.400 205.627,210.400 205.043 C 210.400 204.516,210.689 203.975,211.042 203.839 C 211.854 203.528,211.718 197.173,210.894 196.898 C 210.622 196.807,210.400 196.298,210.400 195.767 C 210.400 195.174,210.168 194.800,209.800 194.800 C 209.427 194.800,209.200 194.422,209.200 193.800 C 209.200 193.250,209.020 192.800,208.800 192.800 C 208.580 192.800,208.400 192.530,208.400 192.200 C 208.400 191.870,208.130 191.600,207.800 191.600 C 207.470 191.600,207.200 191.330,207.200 191.000 C 207.200 190.627,206.822 190.400,206.200 190.400 C 205.650 190.400,205.200 190.220,205.200 190.000 C 205.200 189.780,204.480 189.600,203.600 189.600 C 202.444 189.600,202.000 189.433,202.000 189.000 C 202.000 188.528,201.444 188.400,199.400 188.400 C 197.356 188.400,196.800 188.528,196.800 189.000 " stroke="none" fill="#ffffff" fill-rule="evenodd"></path><path id="path1" d="" stroke="none" fill="#100fcfc" fill-rule="evenodd"></path><path id="path2" d="" stroke="none" fill="#100fcfc" fill-rule="evenodd"></path><path id="path3" d="" stroke="none" fill="#100fcfc" fill-rule="evenodd"></path><path id="path4" d="" stroke="none" fill="#100fcfc" fill-rule="evenodd"></path></g></svg>